<svg width="132" height="37" viewBox="0 0 132 37" fill="none" xmlns="http://www.w3.org/2000/svg">
  <style>
    #logo { transform-origin: center; }
  </style>
<mask id="path-1-outside-1_659_1856" maskUnits="userSpaceOnUse" x="1" y="1" width="131" height="30" fill="black">
<rect fill="white" x="1" y="1" width="131" height="30"/>
<path d="M24.608 4.544C25.12 8 25.472 10.4533 25.664 11.904C25.856 13.3547 26.0907 15.4773 26.368 18.272C26.6453 21.0027 26.816 23.52 26.88 25.824C26.9013 26.528 26.6667 27.136 26.176 27.648C25.6853 28.16 25.088 28.4267 24.384 28.448C23.68 28.4693 23.072 28.2347 22.56 27.744C22.048 27.2533 21.7813 26.656 21.76 25.952C21.6533 22.2613 21.312 18.208 20.736 13.792C19.008 18.6133 17.8453 22.0053 17.248 23.968C17.2907 24.48 17.1947 24.9707 16.96 25.44C16.7253 25.888 16.3733 26.24 15.904 26.496C15.264 26.816 14.6027 26.88 13.92 26.688C13.2587 26.4747 12.7573 26.0587 12.416 25.44C10.7733 22.3467 9.14133 18.944 7.52 15.232C7.41333 20.3307 7.36 23.68 7.36 25.28C7.36 25.984 7.104 26.592 6.592 27.104C6.10133 27.5947 5.504 27.84 4.8 27.84C4.096 27.84 3.488 27.5947 2.976 27.104C2.48533 26.592 2.24 25.984 2.24 25.28C2.24 23.6373 2.29333 20.576 2.4 16.096C2.50667 11.5947 2.528 8.11733 2.464 5.664C2.44267 4.96 2.67733 4.352 3.168 3.84C3.65867 3.328 4.256 3.06133 4.96 3.04C5.216 3.04 5.46133 3.072 5.696 3.136C6.31467 2.96533 6.912 3.02933 7.488 3.328C8.064 3.60533 8.48 4.05333 8.736 4.672C10.592 9.472 12.3733 13.6747 14.08 17.28L15.488 13.28L17.152 8.512L18.496 4.512C18.6453 4 18.9227 3.584 19.328 3.264C19.7333 2.944 20.192 2.76267 20.704 2.72C21.024 2.528 21.3653 2.41067 21.728 2.368C22.4107 2.26133 23.0293 2.42133 23.584 2.848C24.16 3.27467 24.5013 3.84 24.608 4.544ZM33.7795 12.096C33.7795 13.5893 33.8222 15.744 33.9075 18.56C33.9928 21.3547 34.0462 23.3707 34.0675 24.608C34.0675 25.312 33.8222 25.92 33.3315 26.432C32.8408 26.944 32.2435 27.2 31.5395 27.2C30.8355 27.2 30.2275 26.9547 29.7155 26.464C29.2035 25.9733 28.9475 25.376 28.9475 24.672C28.9262 23.4347 28.8728 21.408 28.7875 18.592C28.7022 15.776 28.6595 13.6107 28.6595 12.096C28.6595 11.392 28.9048 10.7947 29.3955 10.304C29.9075 9.792 30.5155 9.536 31.2195 9.536C31.9235 9.536 32.5208 9.792 33.0115 10.304C33.5235 10.7947 33.7795 11.392 33.7795 12.096ZM32.3075 4.096C32.8195 4.58667 33.0755 5.184 33.0755 5.888C33.0755 6.592 32.8195 7.2 32.3075 7.712C31.8168 8.20267 31.2195 8.448 30.5155 8.448C29.8115 8.448 29.2035 8.20267 28.6915 7.712C28.2008 7.2 27.9555 6.592 27.9555 5.888C27.9555 5.184 28.2008 4.58667 28.6915 4.096C29.2035 3.584 29.8115 3.328 30.5155 3.328C31.2195 3.328 31.8168 3.584 32.3075 4.096ZM52.743 10.176C52.2737 9.81333 51.879 9.504 51.559 9.248C51.2177 8.94933 50.9617 8.74667 50.791 8.64C50.6417 8.512 50.4817 8.39467 50.311 8.288C49.9483 8.07467 49.2657 7.94667 48.263 7.904C46.5137 7.81867 44.9563 8.30933 43.591 9.376C42.2043 10.464 41.2337 11.872 40.679 13.6C40.359 14.7093 40.231 15.7867 40.295 16.832C40.359 17.856 40.711 18.8373 41.351 19.776C41.991 20.6933 42.8657 21.44 43.975 22.016C44.6577 22.3573 45.543 22.592 46.631 22.72C47.719 22.848 48.5937 22.8267 49.255 22.656C49.575 22.5707 49.863 22.4747 50.119 22.368C50.375 22.2613 50.5883 22.1653 50.759 22.08C50.9297 21.9947 51.1323 21.8453 51.367 21.632C51.623 21.4187 51.8043 21.2587 51.911 21.152C52.039 21.024 52.2737 20.768 52.615 20.384C52.9777 20 53.2657 19.7013 53.479 19.488C53.9697 18.9973 54.567 18.7413 55.271 18.72C55.975 18.6987 56.5723 18.944 57.063 19.456C57.575 19.9467 57.8417 20.544 57.863 21.248C57.8843 21.952 57.639 22.56 57.127 23.072C56.999 23.2 56.743 23.4773 56.359 23.904C55.975 24.3093 55.687 24.608 55.495 24.8C55.3243 24.9707 55.0257 25.2373 54.599 25.6C54.1937 25.9413 53.8203 26.208 53.479 26.4C53.159 26.592 52.743 26.8053 52.231 27.04C51.719 27.2533 51.1537 27.4347 50.535 27.584C49.191 27.9253 47.687 28 46.023 27.808C44.3163 27.5947 42.8657 27.1787 41.671 26.56C40.1777 25.8133 38.9297 24.864 37.927 23.712C36.9243 22.56 36.2097 21.3333 35.783 20.032C35.3777 18.7307 35.175 17.3973 35.175 16.032C35.175 14.6667 35.3883 13.3333 35.815 12.032C36.2203 10.752 36.807 9.54667 37.575 8.416C38.3643 7.28533 39.2923 6.28267 40.359 5.408C41.4257 4.53333 42.663 3.86133 44.071 3.392C45.479 2.92267 46.9617 2.72 48.519 2.784C50.3537 2.86933 51.815 3.232 52.903 3.872C53.159 4.02133 53.4577 4.224 53.799 4.48L54.919 5.344L55.815 6.08C56.391 6.50667 56.7217 7.072 56.807 7.776C56.9137 8.48 56.7537 9.12 56.327 9.696C55.9003 10.2507 55.335 10.5813 54.631 10.688C53.927 10.7733 53.2977 10.6027 52.743 10.176ZM64.4915 5.76C64.4488 7.70133 64.4488 9.76 64.4915 11.936C64.5342 14.112 64.6088 16.544 64.7155 19.232C64.8222 21.8773 64.8968 23.936 64.9395 25.408C64.9608 26.112 64.7262 26.72 64.2355 27.232C63.7448 27.744 63.1475 28.0107 62.4435 28.032C61.7395 28.0533 61.1315 27.8187 60.6195 27.328C60.1075 26.8373 59.8408 26.24 59.8195 25.536C59.7768 24.128 59.7022 22.048 59.5955 19.296C59.4888 16.544 59.4142 14.0693 59.3715 11.872C59.3288 9.67467 59.3288 7.59466 59.3715 5.632C59.3928 4.928 59.6595 4.33066 60.1715 3.84C60.6835 3.34933 61.2915 3.11467 61.9955 3.136C62.6995 3.15733 63.2968 3.424 63.7875 3.936C64.2782 4.448 64.5128 5.056 64.4915 5.76ZM83.554 12.384C83.554 12.7893 83.5753 13.6533 83.618 14.976C83.682 16.2773 83.714 17.3013 83.714 18.048C83.7353 19.3707 83.7033 20.48 83.618 21.376C83.49 22.72 83.2127 23.7653 82.786 24.512C82.1673 25.664 81.3247 26.656 80.258 27.488C79.1913 28.32 78.0287 28.9067 76.77 29.248C75.874 29.4613 74.978 29.5573 74.082 29.536C73.2073 29.536 72.3113 29.344 71.394 28.96C70.4767 28.5547 69.6553 27.968 68.93 27.2C68.0767 26.304 67.522 24.9493 67.266 23.136C67.0953 21.9413 67.042 20.5013 67.106 18.816C67.1487 17.7067 67.2553 16.3413 67.426 14.72C67.5967 13.0987 67.682 12.192 67.682 12C67.7247 11.296 68.002 10.7093 68.514 10.24C69.0473 9.77067 69.666 9.55733 70.37 9.6C71.0953 9.64267 71.6927 9.93067 72.162 10.464C72.6313 10.976 72.8447 11.5947 72.802 12.32C72.7807 12.5547 72.6847 13.5253 72.514 15.232C72.3647 16.7467 72.2687 18.0053 72.226 19.008C72.1833 20.416 72.2153 21.5573 72.322 22.432C72.3647 22.624 72.3967 22.8053 72.418 22.976C72.4607 23.1467 72.4927 23.2747 72.514 23.36C72.5353 23.424 72.5673 23.4987 72.61 23.584L72.642 23.68C73.346 24.4053 74.2633 24.6187 75.394 24.32C76.0127 24.1493 76.578 23.8613 77.09 23.456C77.6233 23.0507 78.0287 22.592 78.306 22.08C78.3913 21.9307 78.466 21.5253 78.53 20.864C78.594 20.16 78.626 19.2427 78.626 18.112C78.6047 17.344 78.562 16.2987 78.498 14.976C78.4553 13.6533 78.434 12.7893 78.434 12.384C78.434 11.68 78.6793 11.0827 79.17 10.592C79.682 10.08 80.29 9.824 80.994 9.824C81.698 9.824 82.2953 10.08 82.786 10.592C83.298 11.0827 83.554 11.68 83.554 12.384ZM90.3993 16.512C90.4846 19.2213 90.5379 21.1733 90.5593 22.368C90.7299 22.368 90.8899 22.3787 91.0393 22.4L92.2873 22.656C92.8206 22.7627 93.1513 22.8267 93.2793 22.848C93.4286 22.848 93.6526 22.8587 93.9513 22.88C94.2713 22.9013 94.5379 22.8907 94.7513 22.848C94.9859 22.784 95.2739 22.6987 95.6153 22.592C97.0659 22.1653 97.9726 21.4827 98.3353 20.544C98.6553 19.6907 98.5699 18.7413 98.0793 17.696C97.5246 16.544 96.6713 15.712 95.5193 15.2C94.3673 14.688 93.1299 14.6987 91.8073 15.232C91.7646 15.2533 91.6579 15.3493 91.4873 15.52L91.0073 15.968C90.8153 16.16 90.6126 16.3413 90.3993 16.512ZM90.2073 27.456C89.6953 28.2027 88.9913 28.5867 88.0953 28.608C87.3913 28.608 86.7833 28.3627 86.2713 27.872C85.7593 27.3813 85.5033 26.784 85.5033 26.08C85.4819 24.1813 85.3966 20.8427 85.2473 16.064C85.1193 11.2853 85.0553 7.59467 85.0553 4.992C85.0553 4.288 85.3006 3.69067 85.7913 3.2C86.3033 2.688 86.9113 2.432 87.6153 2.432C88.3193 2.432 88.9166 2.688 89.4073 3.2C89.9193 3.69067 90.1753 4.288 90.1753 4.992C90.1753 6.61333 90.1966 8.40533 90.2393 10.368C92.1166 9.664 93.8766 9.504 95.5193 9.888C97.1833 10.2507 98.6233 10.9333 99.8393 11.936C101.055 12.9173 102.005 14.1013 102.687 15.488C103.839 17.856 103.978 20.16 103.103 22.4C102.634 23.616 101.887 24.6613 100.863 25.536C99.8393 26.4107 98.5806 27.072 97.0873 27.52C96.5753 27.6693 96.0739 27.7867 95.5833 27.872C95.1139 27.936 94.7086 27.9787 94.3673 28C94.0473 28.0213 93.6633 28.0107 93.2153 27.968C92.7886 27.9253 92.4579 27.8933 92.2233 27.872C92.0099 27.8293 91.6686 27.7653 91.1993 27.68C90.7299 27.5733 90.3993 27.4987 90.2073 27.456ZM110.306 16.512C110.391 19.2213 110.444 21.1733 110.466 22.368C110.636 22.368 110.796 22.3787 110.946 22.4L112.194 22.656C112.727 22.7627 113.058 22.8267 113.186 22.848C113.335 22.848 113.559 22.8587 113.858 22.88C114.178 22.9013 114.444 22.8907 114.658 22.848C114.892 22.784 115.18 22.6987 115.522 22.592C116.972 22.1653 117.879 21.4827 118.242 20.544C118.562 19.6907 118.476 18.7413 117.986 17.696C117.431 16.544 116.578 15.712 115.426 15.2C114.274 14.688 113.036 14.6987 111.714 15.232C111.671 15.2533 111.564 15.3493 111.394 15.52L110.914 15.968C110.722 16.16 110.519 16.3413 110.306 16.512ZM110.114 27.456C109.602 28.2027 108.898 28.5867 108.002 28.608C107.298 28.608 106.69 28.3627 106.178 27.872C105.666 27.3813 105.41 26.784 105.41 26.08C105.388 24.1813 105.303 20.8427 105.154 16.064C105.026 11.2853 104.962 7.59467 104.962 4.992C104.962 4.288 105.207 3.69067 105.698 3.2C106.21 2.688 106.818 2.432 107.522 2.432C108.226 2.432 108.823 2.688 109.314 3.2C109.826 3.69067 110.082 4.288 110.082 4.992C110.082 6.61333 110.103 8.40533 110.146 10.368C112.023 9.664 113.783 9.504 115.426 9.888C117.09 10.2507 118.53 10.9333 119.746 11.936C120.962 12.9173 121.911 14.1013 122.594 15.488C123.746 17.856 123.884 20.16 123.01 22.4C122.54 23.616 121.794 24.6613 120.77 25.536C119.746 26.4107 118.487 27.072 116.994 27.52C116.482 27.6693 115.98 27.7867 115.49 27.872C115.02 27.936 114.615 27.9787 114.274 28C113.954 28.0213 113.57 28.0107 113.122 27.968C112.695 27.9253 112.364 27.8933 112.13 27.872C111.916 27.8293 111.575 27.7653 111.106 27.68C110.636 27.5733 110.306 27.4987 110.114 27.456ZM130.436 12.096C130.436 13.5893 130.478 15.744 130.564 18.56C130.649 21.3547 130.702 23.3707 130.724 24.608C130.724 25.312 130.478 25.92 129.988 26.432C129.497 26.944 128.9 27.2 128.196 27.2C127.492 27.2 126.884 26.9547 126.372 26.464C125.86 25.9733 125.604 25.376 125.604 24.672C125.582 23.4347 125.529 21.408 125.444 18.592C125.358 15.776 125.316 13.6107 125.316 12.096C125.316 11.392 125.561 10.7947 126.052 10.304C126.564 9.792 127.172 9.536 127.876 9.536C128.58 9.536 129.177 9.792 129.668 10.304C130.18 10.7947 130.436 11.392 130.436 12.096ZM128.964 4.096C129.476 4.58667 129.732 5.184 129.732 5.888C129.732 6.592 129.476 7.2 128.964 7.712C128.473 8.20267 127.876 8.448 127.172 8.448C126.468 8.448 125.86 8.20267 125.348 7.712C124.857 7.2 124.612 6.592 124.612 5.888C124.612 5.184 124.857 4.58667 125.348 4.096C125.86 3.584 126.468 3.328 127.172 3.328C127.876 3.328 128.473 3.584 128.964 4.096Z"/>
</mask>
<g id="logo">
<path d="M24.608 4.544C25.12 8 25.472 10.4533 25.664 11.904C25.856 13.3547 26.0907 15.4773 26.368 18.272C26.6453 21.0027 26.816 23.52 26.88 25.824C26.9013 26.528 26.6667 27.136 26.176 27.648C25.6853 28.16 25.088 28.4267 24.384 28.448C23.68 28.4693 23.072 28.2347 22.56 27.744C22.048 27.2533 21.7813 26.656 21.76 25.952C21.6533 22.2613 21.312 18.208 20.736 13.792C19.008 18.6133 17.8453 22.0053 17.248 23.968C17.2907 24.48 17.1947 24.9707 16.96 25.44C16.7253 25.888 16.3733 26.24 15.904 26.496C15.264 26.816 14.6027 26.88 13.92 26.688C13.2587 26.4747 12.7573 26.0587 12.416 25.44C10.7733 22.3467 9.14133 18.944 7.52 15.232C7.41333 20.3307 7.36 23.68 7.36 25.28C7.36 25.984 7.104 26.592 6.592 27.104C6.10133 27.5947 5.504 27.84 4.8 27.84C4.096 27.84 3.488 27.5947 2.976 27.104C2.48533 26.592 2.24 25.984 2.24 25.28C2.24 23.6373 2.29333 20.576 2.4 16.096C2.50667 11.5947 2.528 8.11733 2.464 5.664C2.44267 4.96 2.67733 4.352 3.168 3.84C3.65867 3.328 4.256 3.06133 4.96 3.04C5.216 3.04 5.46133 3.072 5.696 3.136C6.31467 2.96533 6.912 3.02933 7.488 3.328C8.064 3.60533 8.48 4.05333 8.736 4.672C10.592 9.472 12.3733 13.6747 14.08 17.28L15.488 13.28L17.152 8.512L18.496 4.512C18.6453 4 18.9227 3.584 19.328 3.264C19.7333 2.944 20.192 2.76267 20.704 2.72C21.024 2.528 21.3653 2.41067 21.728 2.368C22.4107 2.26133 23.0293 2.42133 23.584 2.848C24.16 3.27467 24.5013 3.84 24.608 4.544ZM33.7795 12.096C33.7795 13.5893 33.8222 15.744 33.9075 18.56C33.9928 21.3547 34.0462 23.3707 34.0675 24.608C34.0675 25.312 33.8222 25.92 33.3315 26.432C32.8408 26.944 32.2435 27.2 31.5395 27.2C30.8355 27.2 30.2275 26.9547 29.7155 26.464C29.2035 25.9733 28.9475 25.376 28.9475 24.672C28.9262 23.4347 28.8728 21.408 28.7875 18.592C28.7022 15.776 28.6595 13.6107 28.6595 12.096C28.6595 11.392 28.9048 10.7947 29.3955 10.304C29.9075 9.792 30.5155 9.536 31.2195 9.536C31.9235 9.536 32.5208 9.792 33.0115 10.304C33.5235 10.7947 33.7795 11.392 33.7795 12.096ZM32.3075 4.096C32.8195 4.58667 33.0755 5.184 33.0755 5.888C33.0755 6.592 32.8195 7.2 32.3075 7.712C31.8168 8.20267 31.2195 8.448 30.5155 8.448C29.8115 8.448 29.2035 8.20267 28.6915 7.712C28.2008 7.2 27.9555 6.592 27.9555 5.888C27.9555 5.184 28.2008 4.58667 28.6915 4.096C29.2035 3.584 29.8115 3.328 30.5155 3.328C31.2195 3.328 31.8168 3.584 32.3075 4.096ZM52.743 10.176C52.2737 9.81333 51.879 9.504 51.559 9.248C51.2177 8.94933 50.9617 8.74667 50.791 8.64C50.6417 8.512 50.4817 8.39467 50.311 8.288C49.9483 8.07467 49.2657 7.94667 48.263 7.904C46.5137 7.81867 44.9563 8.30933 43.591 9.376C42.2043 10.464 41.2337 11.872 40.679 13.6C40.359 14.7093 40.231 15.7867 40.295 16.832C40.359 17.856 40.711 18.8373 41.351 19.776C41.991 20.6933 42.8657 21.44 43.975 22.016C44.6577 22.3573 45.543 22.592 46.631 22.72C47.719 22.848 48.5937 22.8267 49.255 22.656C49.575 22.5707 49.863 22.4747 50.119 22.368C50.375 22.2613 50.5883 22.1653 50.759 22.08C50.9297 21.9947 51.1323 21.8453 51.367 21.632C51.623 21.4187 51.8043 21.2587 51.911 21.152C52.039 21.024 52.2737 20.768 52.615 20.384C52.9777 20 53.2657 19.7013 53.479 19.488C53.9697 18.9973 54.567 18.7413 55.271 18.72C55.975 18.6987 56.5723 18.944 57.063 19.456C57.575 19.9467 57.8417 20.544 57.863 21.248C57.8843 21.952 57.639 22.56 57.127 23.072C56.999 23.2 56.743 23.4773 56.359 23.904C55.975 24.3093 55.687 24.608 55.495 24.8C55.3243 24.9707 55.0257 25.2373 54.599 25.6C54.1937 25.9413 53.8203 26.208 53.479 26.4C53.159 26.592 52.743 26.8053 52.231 27.04C51.719 27.2533 51.1537 27.4347 50.535 27.584C49.191 27.9253 47.687 28 46.023 27.808C44.3163 27.5947 42.8657 27.1787 41.671 26.56C40.1777 25.8133 38.9297 24.864 37.927 23.712C36.9243 22.56 36.2097 21.3333 35.783 20.032C35.3777 18.7307 35.175 17.3973 35.175 16.032C35.175 14.6667 35.3883 13.3333 35.815 12.032C36.2203 10.752 36.807 9.54667 37.575 8.416C38.3643 7.28533 39.2923 6.28267 40.359 5.408C41.4257 4.53333 42.663 3.86133 44.071 3.392C45.479 2.92267 46.9617 2.72 48.519 2.784C50.3537 2.86933 51.815 3.232 52.903 3.872C53.159 4.02133 53.4577 4.224 53.799 4.48L54.919 5.344L55.815 6.08C56.391 6.50667 56.7217 7.072 56.807 7.776C56.9137 8.48 56.7537 9.12 56.327 9.696C55.9003 10.2507 55.335 10.5813 54.631 10.688C53.927 10.7733 53.2977 10.6027 52.743 10.176ZM64.4915 5.76C64.4488 7.70133 64.4488 9.76 64.4915 11.936C64.5342 14.112 64.6088 16.544 64.7155 19.232C64.8222 21.8773 64.8968 23.936 64.9395 25.408C64.9608 26.112 64.7262 26.72 64.2355 27.232C63.7448 27.744 63.1475 28.0107 62.4435 28.032C61.7395 28.0533 61.1315 27.8187 60.6195 27.328C60.1075 26.8373 59.8408 26.24 59.8195 25.536C59.7768 24.128 59.7022 22.048 59.5955 19.296C59.4888 16.544 59.4142 14.0693 59.3715 11.872C59.3288 9.67467 59.3288 7.59466 59.3715 5.632C59.3928 4.928 59.6595 4.33066 60.1715 3.84C60.6835 3.34933 61.2915 3.11467 61.9955 3.136C62.6995 3.15733 63.2968 3.424 63.7875 3.936C64.2782 4.448 64.5128 5.056 64.4915 5.76ZM83.554 12.384C83.554 12.7893 83.5753 13.6533 83.618 14.976C83.682 16.2773 83.714 17.3013 83.714 18.048C83.7353 19.3707 83.7033 20.48 83.618 21.376C83.49 22.72 83.2127 23.7653 82.786 24.512C82.1673 25.664 81.3247 26.656 80.258 27.488C79.1913 28.32 78.0287 28.9067 76.77 29.248C75.874 29.4613 74.978 29.5573 74.082 29.536C73.2073 29.536 72.3113 29.344 71.394 28.96C70.4767 28.5547 69.6553 27.968 68.93 27.2C68.0767 26.304 67.522 24.9493 67.266 23.136C67.0953 21.9413 67.042 20.5013 67.106 18.816C67.1487 17.7067 67.2553 16.3413 67.426 14.72C67.5967 13.0987 67.682 12.192 67.682 12C67.7247 11.296 68.002 10.7093 68.514 10.24C69.0473 9.77067 69.666 9.55733 70.37 9.6C71.0953 9.64267 71.6927 9.93067 72.162 10.464C72.6313 10.976 72.8447 11.5947 72.802 12.32C72.7807 12.5547 72.6847 13.5253 72.514 15.232C72.3647 16.7467 72.2687 18.0053 72.226 19.008C72.1833 20.416 72.2153 21.5573 72.322 22.432C72.3647 22.624 72.3967 22.8053 72.418 22.976C72.4607 23.1467 72.4927 23.2747 72.514 23.36C72.5353 23.424 72.5673 23.4987 72.61 23.584L72.642 23.68C73.346 24.4053 74.2633 24.6187 75.394 24.32C76.0127 24.1493 76.578 23.8613 77.09 23.456C77.6233 23.0507 78.0287 22.592 78.306 22.08C78.3913 21.9307 78.466 21.5253 78.53 20.864C78.594 20.16 78.626 19.2427 78.626 18.112C78.6047 17.344 78.562 16.2987 78.498 14.976C78.4553 13.6533 78.434 12.7893 78.434 12.384C78.434 11.68 78.6793 11.0827 79.17 10.592C79.682 10.08 80.29 9.824 80.994 9.824C81.698 9.824 82.2953 10.08 82.786 10.592C83.298 11.0827 83.554 11.68 83.554 12.384ZM90.3993 16.512C90.4846 19.2213 90.5379 21.1733 90.5593 22.368C90.7299 22.368 90.8899 22.3787 91.0393 22.4L92.2873 22.656C92.8206 22.7627 93.1513 22.8267 93.2793 22.848C93.4286 22.848 93.6526 22.8587 93.9513 22.88C94.2713 22.9013 94.5379 22.8907 94.7513 22.848C94.9859 22.784 95.2739 22.6987 95.6153 22.592C97.0659 22.1653 97.9726 21.4827 98.3353 20.544C98.6553 19.6907 98.5699 18.7413 98.0793 17.696C97.5246 16.544 96.6713 15.712 95.5193 15.2C94.3673 14.688 93.1299 14.6987 91.8073 15.232C91.7646 15.2533 91.6579 15.3493 91.4873 15.52L91.0073 15.968C90.8153 16.16 90.6126 16.3413 90.3993 16.512ZM90.2073 27.456C89.6953 28.2027 88.9913 28.5867 88.0953 28.608C87.3913 28.608 86.7833 28.3627 86.2713 27.872C85.7593 27.3813 85.5033 26.784 85.5033 26.08C85.4819 24.1813 85.3966 20.8427 85.2473 16.064C85.1193 11.2853 85.0553 7.59467 85.0553 4.992C85.0553 4.288 85.3006 3.69067 85.7913 3.2C86.3033 2.688 86.9113 2.432 87.6153 2.432C88.3193 2.432 88.9166 2.688 89.4073 3.2C89.9193 3.69067 90.1753 4.288 90.1753 4.992C90.1753 6.61333 90.1966 8.40533 90.2393 10.368C92.1166 9.664 93.8766 9.504 95.5193 9.888C97.1833 10.2507 98.6233 10.9333 99.8393 11.936C101.055 12.9173 102.005 14.1013 102.687 15.488C103.839 17.856 103.978 20.16 103.103 22.4C102.634 23.616 101.887 24.6613 100.863 25.536C99.8393 26.4107 98.5806 27.072 97.0873 27.52C96.5753 27.6693 96.0739 27.7867 95.5833 27.872C95.1139 27.936 94.7086 27.9787 94.3673 28C94.0473 28.0213 93.6633 28.0107 93.2153 27.968C92.7886 27.9253 92.4579 27.8933 92.2233 27.872C92.0099 27.8293 91.6686 27.7653 91.1993 27.68C90.7299 27.5733 90.3993 27.4987 90.2073 27.456ZM110.306 16.512C110.391 19.2213 110.444 21.1733 110.466 22.368C110.636 22.368 110.796 22.3787 110.946 22.4L112.194 22.656C112.727 22.7627 113.058 22.8267 113.186 22.848C113.335 22.848 113.559 22.8587 113.858 22.88C114.178 22.9013 114.444 22.8907 114.658 22.848C114.892 22.784 115.18 22.6987 115.522 22.592C116.972 22.1653 117.879 21.4827 118.242 20.544C118.562 19.6907 118.476 18.7413 117.986 17.696C117.431 16.544 116.578 15.712 115.426 15.2C114.274 14.688 113.036 14.6987 111.714 15.232C111.671 15.2533 111.564 15.3493 111.394 15.52L110.914 15.968C110.722 16.16 110.519 16.3413 110.306 16.512ZM110.114 27.456C109.602 28.2027 108.898 28.5867 108.002 28.608C107.298 28.608 106.69 28.3627 106.178 27.872C105.666 27.3813 105.41 26.784 105.41 26.08C105.388 24.1813 105.303 20.8427 105.154 16.064C105.026 11.2853 104.962 7.59467 104.962 4.992C104.962 4.288 105.207 3.69067 105.698 3.2C106.21 2.688 106.818 2.432 107.522 2.432C108.226 2.432 108.823 2.688 109.314 3.2C109.826 3.69067 110.082 4.288 110.082 4.992C110.082 6.61333 110.103 8.40533 110.146 10.368C112.023 9.664 113.783 9.504 115.426 9.888C117.09 10.2507 118.53 10.9333 119.746 11.936C120.962 12.9173 121.911 14.1013 122.594 15.488C123.746 17.856 123.884 20.16 123.01 22.4C122.54 23.616 121.794 24.6613 120.77 25.536C119.746 26.4107 118.487 27.072 116.994 27.52C116.482 27.6693 115.98 27.7867 115.49 27.872C115.02 27.936 114.615 27.9787 114.274 28C113.954 28.0213 113.57 28.0107 113.122 27.968C112.695 27.9253 112.364 27.8933 112.13 27.872C111.916 27.8293 111.575 27.7653 111.106 27.68C110.636 27.5733 110.306 27.4987 110.114 27.456ZM130.436 12.096C130.436 13.5893 130.478 15.744 130.564 18.56C130.649 21.3547 130.702 23.3707 130.724 24.608C130.724 25.312 130.478 25.92 129.988 26.432C129.497 26.944 128.9 27.2 128.196 27.2C127.492 27.2 126.884 26.9547 126.372 26.464C125.86 25.9733 125.604 25.376 125.604 24.672C125.582 23.4347 125.529 21.408 125.444 18.592C125.358 15.776 125.316 13.6107 125.316 12.096C125.316 11.392 125.561 10.7947 126.052 10.304C126.564 9.792 127.172 9.536 127.876 9.536C128.58 9.536 129.177 9.792 129.668 10.304C130.18 10.7947 130.436 11.392 130.436 12.096ZM128.964 4.096C129.476 4.58667 129.732 5.184 129.732 5.888C129.732 6.592 129.476 7.2 128.964 7.712C128.473 8.20267 127.876 8.448 127.172 8.448C126.468 8.448 125.86 8.20267 125.348 7.712C124.857 7.2 124.612 6.592 124.612 5.888C124.612 5.184 124.857 4.58667 125.348 4.096C125.86 3.584 126.468 3.328 127.172 3.328C127.876 3.328 128.473 3.584 128.964 4.096Z" fill="#4BB861">
<animate attributeName="fill" begin="2s" dur="1s" from="#4BB861" to="#F4C770" repeatCount="1" fill="freeze"/>
</path>
<path d="M24.608 4.544L25.5972 4.39745L25.5967 4.39419L24.608 4.544ZM25.664 11.904L24.6726 12.0352L24.6726 12.0352L25.664 11.904ZM26.368 18.272L25.3729 18.3708L25.3731 18.373L26.368 18.272ZM26.88 25.824L25.8804 25.8518L25.8805 25.8543L26.88 25.824ZM26.176 27.648L25.454 26.9561L25.454 26.9561L26.176 27.648ZM21.76 25.952L20.7604 25.9809L20.7605 25.9823L21.76 25.952ZM20.736 13.792L21.7276 13.6627L19.7946 13.4546L20.736 13.792ZM17.248 23.968L16.2913 23.6768L16.2355 23.8601L16.2515 24.051L17.248 23.968ZM16.96 25.44L17.8458 25.904L17.8502 25.8956L17.8544 25.8872L16.96 25.44ZM15.904 26.496L16.3512 27.3904L16.3672 27.3824L16.3829 27.3739L15.904 26.496ZM13.92 26.688L13.613 27.6397L13.631 27.6455L13.6493 27.6507L13.92 26.688ZM12.416 25.44L11.5328 25.909L11.5366 25.9161L11.5404 25.9231L12.416 25.44ZM7.52 15.232L8.4364 14.8317L6.52022 15.2111L7.52 15.232ZM6.592 27.104L7.29911 27.8111L7.29911 27.8111L6.592 27.104ZM2.976 27.104L2.25401 27.7959L2.26873 27.8113L2.28409 27.826L2.976 27.104ZM2.4 16.096L3.39972 16.1198L3.39972 16.1197L2.4 16.096ZM2.464 5.664L3.46367 5.63792L3.46354 5.63371L2.464 5.664ZM3.168 3.84L2.44601 3.14809L2.44601 3.14809L3.168 3.84ZM4.96 3.04V2.04H4.94485L4.92971 2.04046L4.96 3.04ZM5.696 3.136L5.43288 4.10076L5.69751 4.17294L5.96193 4.09999L5.696 3.136ZM7.488 3.328L7.02768 4.21575L7.04084 4.22257L7.05418 4.229L7.488 3.328ZM8.736 4.672L9.6687 4.31135L9.66449 4.30045L9.66002 4.28965L8.736 4.672ZM14.08 17.28L13.1762 17.7079L14.2162 19.9049L15.0233 17.612L14.08 17.28ZM15.488 13.28L16.4313 13.612L16.4322 13.6095L15.488 13.28ZM17.152 8.512L18.0962 8.84152L18.0999 8.8305L17.152 8.512ZM18.496 4.512L19.4439 4.8305L19.4503 4.81137L19.456 4.792L18.496 4.512ZM19.328 3.264L18.7084 2.47912L18.7084 2.47912L19.328 3.264ZM20.704 2.72L20.787 3.71655L21.0189 3.69722L21.2185 3.57749L20.704 2.72ZM21.728 2.368L21.8448 3.36115L21.8637 3.35893L21.8824 3.35601L21.728 2.368ZM23.584 2.848L22.9743 3.64062L22.9815 3.64616L22.9888 3.65156L23.584 2.848ZM23.6188 4.69055C24.1308 8.14648 24.4818 10.593 24.6726 12.0352L26.6554 11.7728C26.4622 10.3137 26.1092 7.85352 25.5972 4.39745L23.6188 4.69055ZM24.6726 12.0352C24.8625 13.4693 25.0958 15.579 25.3729 18.3708L27.3631 18.1732C27.0855 15.3756 26.8495 13.24 26.6554 11.7728L24.6726 12.0352ZM25.3731 18.373C25.6484 21.0838 25.8172 23.5763 25.8804 25.8518L27.8796 25.7962C27.8148 23.4637 27.6422 20.9216 27.3629 18.171L25.3731 18.373ZM25.8805 25.8543C25.8936 26.288 25.7604 26.6363 25.454 26.9561L26.898 28.3399C27.5729 27.6357 27.9091 26.768 27.8795 25.7937L25.8805 25.8543ZM25.454 26.9561C25.1433 27.2803 24.7937 27.4351 24.3537 27.4485L24.4143 29.4475C25.3823 29.4182 26.2274 29.0397 26.898 28.3399L25.454 26.9561ZM24.3537 27.4485C23.92 27.4616 23.5717 27.3284 23.2519 27.022L21.8681 28.466C22.5723 29.1409 23.44 29.4771 24.4143 29.4475L24.3537 27.4485ZM23.2519 27.022C22.9277 26.7113 22.7729 26.3617 22.7595 25.9217L20.7605 25.9823C20.7898 26.9503 21.1683 27.7954 21.8681 28.466L23.2519 27.022ZM22.7596 25.9231C22.6518 22.1929 22.3071 18.1055 21.7276 13.6627L19.7444 13.9213C20.3169 18.3105 20.6549 22.3298 20.7604 25.9809L22.7596 25.9231ZM19.7946 13.4546C18.0669 18.2753 16.8966 21.6882 16.2913 23.6768L18.2047 24.2592C18.7941 22.3225 19.9491 18.9513 21.6774 14.1294L19.7946 13.4546ZM16.2515 24.051C16.2786 24.3762 16.2201 24.6838 16.0656 24.9928L17.8544 25.8872C18.1693 25.2575 18.3028 24.5838 18.2445 23.885L16.2515 24.051ZM16.0742 24.976C15.9366 25.2386 15.7313 25.4511 15.4251 25.6181L16.3829 27.3739C17.0153 27.0289 17.514 26.5374 17.8458 25.904L16.0742 24.976ZM15.4568 25.6016C15.0371 25.8114 14.6316 25.8493 14.1907 25.7253L13.6493 27.6507C14.5738 27.9107 15.4909 27.8206 16.3512 27.3904L15.4568 25.6016ZM14.227 25.7363C13.8124 25.6026 13.5122 25.3569 13.2916 24.9569L11.5404 25.9231C12.0024 26.7605 12.7049 27.3468 13.613 27.6397L14.227 25.7363ZM13.2992 24.971C11.6701 21.9033 10.0491 18.5239 8.4364 14.8317L6.6036 15.6323C8.23359 19.3641 9.87653 22.79 11.5328 25.909L13.2992 24.971ZM6.52022 15.2111C6.4136 20.3075 6.36 23.6676 6.36 25.28H8.36C8.36 23.6924 8.41307 20.3538 8.51978 15.2529L6.52022 15.2111ZM6.36 25.28C6.36 25.7104 6.21534 26.0664 5.88489 26.3969L7.29911 27.8111C7.99266 27.1176 8.36 26.2576 8.36 25.28H6.36ZM5.88489 26.3969C5.5848 26.697 5.24312 26.84 4.8 26.84V28.84C5.76489 28.84 6.61786 28.4924 7.29911 27.8111L5.88489 26.3969ZM4.8 26.84C4.35595 26.84 3.99526 26.6957 3.66791 26.382L2.28409 27.826C2.98074 28.4936 3.83605 28.84 4.8 28.84V26.84ZM3.69799 26.4121C3.38427 26.0847 3.24 25.724 3.24 25.28H1.24C1.24 26.244 1.58639 27.0993 2.25401 27.7959L3.69799 26.4121ZM3.24 25.28C3.24 23.6509 3.29302 20.6009 3.39972 16.1198L1.40028 16.0722C1.29364 20.5511 1.24 23.6237 1.24 25.28H3.24ZM3.39972 16.1197C3.50651 11.613 3.52831 8.11617 3.46366 5.63792L1.46434 5.69008C1.52769 8.11849 1.50682 11.5764 1.40028 16.0723L3.39972 16.1197ZM3.46354 5.63371C3.4504 5.2 3.58355 4.85166 3.88999 4.5319L2.44601 3.14809C1.77111 3.85234 1.43494 4.72 1.46446 5.69429L3.46354 5.63371ZM3.88999 4.5319C4.20071 4.20768 4.55027 4.05287 4.99029 4.03954L4.92971 2.04046C3.96173 2.06979 3.11663 2.44832 2.44601 3.14809L3.88999 4.5319ZM4.96 4.04C5.13178 4.04 5.28835 4.06135 5.43288 4.10076L5.95912 2.17124C5.63432 2.08265 5.30022 2.04 4.96 2.04V4.04ZM5.96193 4.09999C6.33461 3.99718 6.67277 4.03172 7.02768 4.21575L7.94832 2.44024C7.15123 2.02694 6.29473 1.93348 5.43007 2.17201L5.96193 4.09999ZM7.05418 4.229C7.39733 4.39422 7.64516 4.6512 7.81198 5.05435L9.66002 4.28965C9.31484 3.45547 8.73067 2.81644 7.92182 2.427L7.05418 4.229ZM7.8033 5.03264C9.66572 9.84926 11.4566 14.0752 13.1762 17.7079L14.9838 16.8521C13.2901 13.2741 11.5183 9.09474 9.6687 4.31135L7.8033 5.03264ZM15.0233 17.612L16.4313 13.612L14.5447 12.948L13.1367 16.948L15.0233 17.612ZM16.4322 13.6095L18.0962 8.8415L16.2078 8.1825L14.5438 12.9505L16.4322 13.6095ZM18.0999 8.8305L19.4439 4.8305L17.5481 4.1935L16.2041 8.1935L18.0999 8.8305ZM19.456 4.792C19.5492 4.47261 19.7111 4.23563 19.9476 4.04888L18.7084 2.47912C18.1342 2.93237 17.7415 3.52739 17.536 4.232L19.456 4.792ZM19.9476 4.04888C20.1996 3.84994 20.4719 3.74281 20.787 3.71655L20.621 1.72345C19.9121 1.78252 19.267 2.03805 18.7084 2.47912L19.9476 4.04888ZM21.2185 3.57749C21.4198 3.45672 21.626 3.3869 21.8448 3.36115L21.6112 1.37485C21.1047 1.43443 20.6282 1.59928 20.1895 1.86251L21.2185 3.57749ZM21.8824 3.35601C22.2904 3.29225 22.6337 3.37859 22.9743 3.64062L24.1937 2.05538C23.425 1.46407 22.5309 1.23041 21.5736 1.37999L21.8824 3.35601ZM22.9888 3.65156C23.354 3.92207 23.5525 4.25313 23.6193 4.6938L25.5967 4.39419C25.4502 3.42687 24.966 2.62727 24.1792 2.04444L22.9888 3.65156ZM33.9075 18.56L32.908 18.5903L32.908 18.5905L33.9075 18.56ZM34.0675 24.608H35.0675V24.5994L35.0674 24.5908L34.0675 24.608ZM33.3315 26.432L32.6095 25.7401L32.6095 25.7401L33.3315 26.432ZM29.7155 26.464L29.0236 27.186L29.0236 27.186L29.7155 26.464ZM28.9475 24.672H29.9475V24.6634L29.9474 24.6548L28.9475 24.672ZM28.7875 18.592L27.788 18.6223L27.788 18.6223L28.7875 18.592ZM29.3955 10.304L28.6884 9.59689L28.6884 9.59689L29.3955 10.304ZM33.0115 10.304L32.2895 10.9959L32.3042 11.0113L32.3196 11.026L33.0115 10.304ZM32.3075 4.096L31.5855 4.7879L31.6002 4.80327L31.6156 4.81799L32.3075 4.096ZM32.3075 7.712L33.0146 8.41911L33.0146 8.41911L32.3075 7.712ZM28.6915 7.712L27.9695 8.4039L27.9842 8.41927L27.9996 8.43399L28.6915 7.712ZM28.6915 4.096L27.9844 3.38889L27.9844 3.38889L28.6915 4.096ZM32.7795 12.096C32.7795 13.6047 32.8225 15.7713 32.908 18.5903L34.907 18.5297C34.8218 15.7167 34.7795 13.574 34.7795 12.096H32.7795ZM32.908 18.5905C32.9933 21.3848 33.0464 23.3951 33.0676 24.6252L35.0674 24.5908C35.0459 23.3462 34.9924 21.3245 34.907 18.5295L32.908 18.5905ZM33.0675 24.608C33.0675 25.052 32.9232 25.4127 32.6095 25.7401L34.0535 27.1239C34.7211 26.4273 35.0675 25.572 35.0675 24.608H33.0675ZM32.6095 25.7401C32.3059 26.0569 31.9687 26.2 31.5395 26.2V28.2C32.5183 28.2 33.3758 27.8311 34.0535 27.1239L32.6095 25.7401ZM31.5395 26.2C31.0955 26.2 30.7348 26.0557 30.4074 25.742L29.0236 27.186C29.7202 27.8536 30.5755 28.2 31.5395 28.2V26.2ZM30.4074 25.742C30.0906 25.4384 29.9475 25.1012 29.9475 24.672H27.9475C27.9475 25.6508 28.3164 26.5083 29.0236 27.186L30.4074 25.742ZM29.9474 24.6548C29.9259 23.4103 29.8724 21.378 29.787 18.5617L27.788 18.6223C27.8733 21.438 27.9264 23.459 27.9476 24.6892L29.9474 24.6548ZM29.787 18.5617C29.7018 15.7488 29.6595 13.5954 29.6595 12.096H27.6595C27.6595 13.6259 27.7025 15.8032 27.788 18.6223L29.787 18.5617ZM29.6595 12.096C29.6595 11.6529 29.8025 11.3112 30.1026 11.0111L28.6884 9.59689C28.0071 10.2781 27.6595 11.1311 27.6595 12.096H29.6595ZM30.1026 11.0111C30.4331 10.6807 30.7891 10.536 31.2195 10.536V8.536C30.2419 8.536 29.3819 8.90334 28.6884 9.59689L30.1026 11.0111ZM31.2195 10.536C31.6487 10.536 31.9859 10.6791 32.2895 10.9959L33.7335 9.61209C33.0558 8.90491 32.1983 8.536 31.2195 8.536V10.536ZM32.3196 11.026C32.6364 11.3296 32.7795 11.6668 32.7795 12.096H34.7795C34.7795 11.1172 34.4106 10.2597 33.7034 9.58201L32.3196 11.026ZM31.6156 4.81799C31.9324 5.12161 32.0755 5.45885 32.0755 5.888H34.0755C34.0755 4.90915 33.7066 4.05172 32.9994 3.37401L31.6156 4.81799ZM32.0755 5.888C32.0755 6.31844 31.9308 6.67444 31.6004 7.00489L33.0146 8.41911C33.7082 7.72555 34.0755 6.86556 34.0755 5.888H32.0755ZM31.6004 7.00489C31.3003 7.30498 30.9586 7.448 30.5155 7.448V9.448C31.4804 9.448 32.3334 9.10035 33.0146 8.41911L31.6004 7.00489ZM30.5155 7.448C30.0715 7.448 29.7108 7.30373 29.3834 6.99001L27.9996 8.43399C28.6962 9.1016 29.5515 9.448 30.5155 9.448V7.448ZM29.4135 7.0201C29.0998 6.69274 28.9555 6.33204 28.9555 5.888H26.9555C26.9555 6.85195 27.3019 7.70726 27.9695 8.4039L29.4135 7.0201ZM28.9555 5.888C28.9555 5.44488 29.0985 5.1032 29.3986 4.80311L27.9844 3.38889C27.3031 4.07014 26.9555 4.92311 26.9555 5.888H28.9555ZM29.3986 4.80311C29.7291 4.47266 30.0851 4.328 30.5155 4.328V2.328C29.5379 2.328 28.6779 2.69534 27.9844 3.38889L29.3986 4.80311ZM30.5155 4.328C30.9447 4.328 31.2819 4.47108 31.5855 4.7879L33.0295 3.40409C32.3518 2.69691 31.4943 2.328 30.5155 2.328V4.328ZM52.743 10.176L52.1316 10.9673L52.1333 10.9686L52.743 10.176ZM51.559 9.248L50.9005 10.0006L50.9171 10.0151L50.9343 10.0289L51.559 9.248ZM50.791 8.64L50.1402 9.39926L50.1973 9.44817L50.261 9.488L50.791 8.64ZM50.311 8.288L50.841 7.44L50.8296 7.43288L50.818 7.42606L50.311 8.288ZM48.263 7.904L48.2143 8.90283L48.2205 8.9031L48.263 7.904ZM43.591 9.376L42.9754 8.58797L42.9737 8.58926L43.591 9.376ZM40.679 13.6L39.7268 13.2944L39.7223 13.3085L39.7182 13.3228L40.679 13.6ZM40.295 16.832L39.2969 16.8931L39.2969 16.8944L40.295 16.832ZM41.351 19.776L40.5247 20.3394L40.5309 20.3482L41.351 19.776ZM43.975 22.016L43.5142 22.9035L43.521 22.907L43.5278 22.9104L43.975 22.016ZM49.255 22.656L49.5049 23.6243L49.5127 23.6222L49.255 22.656ZM50.119 22.368L49.7344 21.4449L49.7344 21.4449L50.119 22.368ZM50.759 22.08L51.2062 22.9744L51.2062 22.9744L50.759 22.08ZM51.367 21.632L50.7268 20.8638L50.7103 20.8776L50.6943 20.8921L51.367 21.632ZM51.911 21.152L51.2039 20.4449L51.2039 20.4449L51.911 21.152ZM52.615 20.384L51.888 19.6974L51.8776 19.7084L51.8676 19.7196L52.615 20.384ZM53.479 19.488L54.1861 20.1951L53.479 19.488ZM55.271 18.72L55.2407 17.7205L55.2407 17.7205L55.271 18.72ZM57.063 19.456L56.341 20.1479L56.3557 20.1633L56.3711 20.178L57.063 19.456ZM57.127 23.072L56.4199 22.3649L56.4199 22.3649L57.127 23.072ZM56.359 23.904L57.085 24.5917L57.0937 24.5825L57.1023 24.573L56.359 23.904ZM55.495 24.8L56.2021 25.5071L56.2021 25.5071L55.495 24.8ZM54.599 25.6L55.2431 26.3649L55.2466 26.3619L54.599 25.6ZM53.479 26.4L52.9887 25.5284L52.9765 25.5353L52.9645 25.5425L53.479 26.4ZM52.231 27.04L52.6156 27.9631L52.6318 27.9564L52.6477 27.9491L52.231 27.04ZM50.535 27.584L50.3003 26.6118L50.2888 26.6148L50.535 27.584ZM46.023 27.808L45.899 28.8003L45.9084 28.8014L46.023 27.808ZM41.671 26.56L42.1309 25.672L42.1246 25.6687L42.1182 25.6656L41.671 26.56ZM37.927 23.712L38.6813 23.0555L37.927 23.712ZM35.783 20.032L34.8282 20.3294L34.8305 20.3365L34.8328 20.3436L35.783 20.032ZM35.815 12.032L36.7653 12.3436L36.7683 12.3339L35.815 12.032ZM37.575 8.416L36.755 7.84353L36.7478 7.85412L37.575 8.416ZM40.359 5.408L39.7249 4.63473L39.7249 4.63473L40.359 5.408ZM44.071 3.392L43.7548 2.44331L43.7548 2.44332L44.071 3.392ZM48.519 2.784L48.5655 1.78506L48.5601 1.78484L48.519 2.784ZM52.903 3.872L52.396 4.73394L52.3991 4.73578L52.903 3.872ZM53.799 4.48L54.4099 3.68814L54.399 3.68L53.799 4.48ZM54.919 5.344L55.5537 4.57127L55.5419 4.56156L55.5298 4.55222L54.919 5.344ZM55.815 6.08L55.1803 6.85273L55.1996 6.86864L55.2198 6.88355L55.815 6.08ZM56.807 7.776L55.8143 7.89633L55.8161 7.9111L55.8183 7.9258L56.807 7.776ZM56.327 9.696L57.1196 10.3057L57.1252 10.2985L57.1306 10.2912L56.327 9.696ZM54.631 10.688L54.7513 11.6807L54.7661 11.6789L54.7808 11.6767L54.631 10.688ZM53.3544 9.38471C52.8878 9.02411 52.4979 8.71846 52.1837 8.46713L50.9343 10.0289C51.2601 10.2895 51.6595 10.6026 52.1316 10.9673L53.3544 9.38471ZM52.2175 8.49542C51.8731 8.19405 51.5653 7.94469 51.321 7.792L50.261 9.488C50.358 9.54864 50.5623 9.70462 50.9005 10.0006L52.2175 8.49542ZM51.4418 7.88074C51.2536 7.71944 51.0531 7.57257 50.841 7.44L49.781 9.13599C49.9102 9.21676 50.0297 9.30456 50.1402 9.39926L51.4418 7.88074ZM50.818 7.42606C50.493 7.23488 50.1023 7.12244 49.7113 7.04913C49.3076 6.97343 48.8355 6.92745 48.3055 6.9049L48.2205 8.9031C48.6932 8.92321 49.0637 8.96256 49.3427 9.01487C49.6344 9.06956 49.7663 9.12779 49.804 9.14993L50.818 7.42606ZM48.3117 6.90519C46.3257 6.80831 44.5319 7.37189 42.9754 8.58798L44.2066 10.164C45.3807 9.24677 46.7017 8.82902 48.2143 8.90281L48.3117 6.90519ZM42.9737 8.58926C41.425 9.80441 40.3407 11.3821 39.7268 13.2944L41.6312 13.9056C42.1267 12.3619 42.9837 11.1236 44.2083 10.1627L42.9737 8.58926ZM39.7182 13.3228C39.3697 14.5308 39.2252 15.7226 39.2969 16.8931L41.2931 16.7709C41.2368 15.8507 41.3483 14.8879 41.6398 13.8772L39.7182 13.3228ZM39.2969 16.8944C39.3733 18.1166 39.7947 19.2685 40.5248 20.3393L42.1772 19.2127C41.6273 18.4061 41.3447 17.5954 41.2931 16.7696L39.2969 16.8944ZM40.5309 20.3482C41.2738 21.4131 42.2785 22.2619 43.5142 22.9035L44.4358 21.1285C43.4529 20.6181 42.7082 19.9736 42.1711 19.2038L40.5309 20.3482ZM43.5278 22.9104C44.3485 23.3208 45.3569 23.577 46.5142 23.7132L46.7478 21.7268C45.7291 21.607 44.9668 21.3939 44.4222 21.1216L43.5278 22.9104ZM46.5142 23.7132C47.6598 23.8479 48.6736 23.8388 49.5049 23.6243L49.0051 21.6877C48.5137 21.8145 47.7782 21.8481 46.7478 21.7268L46.5142 23.7132ZM49.5127 23.6222C49.8679 23.5275 50.1993 23.4179 50.5036 23.2911L49.7344 21.4449C49.5267 21.5315 49.2821 21.6138 48.9973 21.6898L49.5127 23.6222ZM50.5036 23.2911C50.7722 23.1791 51.0081 23.0735 51.2062 22.9744L50.3118 21.1856C50.1685 21.2572 49.9778 21.3435 49.7344 21.4449L50.5036 23.2911ZM51.2062 22.9744C51.4949 22.8301 51.7757 22.6119 52.0397 22.3719L50.6943 20.8921C50.489 21.0787 50.3644 21.1592 50.3118 21.1856L51.2062 22.9744ZM52.0072 22.4002C52.2656 22.1849 52.477 22.0002 52.6181 21.8591L51.2039 20.4449C51.1317 20.5171 50.9804 20.6524 50.7268 20.8638L52.0072 22.4002ZM52.6181 21.8591C52.7701 21.7072 53.0235 21.4296 53.3624 21.0484L51.8676 19.7196C51.5238 20.1064 51.3079 20.3408 51.2039 20.4449L52.6181 21.8591ZM53.342 21.0706C53.7022 20.6892 53.9827 20.3985 54.1861 20.1951L52.7719 18.7809C52.5487 19.0041 52.2531 19.3107 51.888 19.6974L53.342 21.0706ZM54.1861 20.1951C54.4937 19.8875 54.8477 19.7333 55.3013 19.7195L55.2407 17.7205C54.2863 17.7494 53.4457 18.1071 52.7719 18.7809L54.1861 20.1951ZM55.3013 19.7195C55.7201 19.7069 56.0447 19.8387 56.341 20.1479L57.785 18.7641C57.1 18.0493 56.2299 17.6905 55.2407 17.7205L55.3013 19.7195ZM56.3711 20.178C56.6953 20.4887 56.8501 20.8383 56.8635 21.2783L58.8625 21.2177C58.8332 20.2497 58.4547 19.4046 57.7549 18.734L56.3711 20.178ZM56.8635 21.2783C56.8762 21.6981 56.7431 22.0417 56.4199 22.3649L57.8341 23.7791C58.5349 23.0783 58.8925 22.2059 58.8625 21.2177L56.8635 21.2783ZM56.4199 22.3649C56.27 22.5148 55.996 22.8124 55.6157 23.235L57.1023 24.573C57.49 24.1422 57.7281 23.8852 57.8341 23.7791L56.4199 22.3649ZM55.633 23.2163C55.2502 23.6204 54.9699 23.9109 54.7879 24.0929L56.2021 25.5071C56.4041 25.3051 56.6998 24.9983 57.085 24.5917L55.633 23.2163ZM54.7879 24.0929C54.6485 24.2323 54.3771 24.4762 53.9514 24.8381L55.2466 26.3619C55.6743 25.9985 56.0002 25.709 56.2021 25.5071L54.7879 24.0929ZM53.9549 24.8351C53.5818 25.1492 53.2603 25.3757 52.9887 25.5284L53.9693 27.2716C54.3803 27.0403 54.8055 26.7335 55.2431 26.3649L53.9549 24.8351ZM52.9645 25.5425C52.6877 25.7086 52.3078 25.9048 51.8143 26.1309L52.6477 27.9491C53.1782 27.7059 53.6303 27.4754 53.9935 27.2575L52.9645 25.5425ZM51.8464 26.1169C51.3895 26.3073 50.8751 26.4732 50.3004 26.6119L50.7696 28.5561C51.4322 28.3962 52.0485 28.1994 52.6156 27.9631L51.8464 26.1169ZM50.2888 26.6148C49.0843 26.9207 47.7053 26.9955 46.1376 26.8146L45.9084 28.8014C47.6687 29.0045 49.2977 28.93 50.7812 28.5532L50.2888 26.6148ZM46.147 26.8157C44.5265 26.6132 43.196 26.2236 42.1309 25.672L41.2111 27.448C42.5354 28.1337 44.1062 28.5762 45.899 28.8003L46.147 26.8157ZM42.1182 25.6656C40.7309 24.9719 39.5904 24.1 38.6813 23.0555L37.1727 24.3685C38.2689 25.628 39.6245 26.6548 41.2238 27.4544L42.1182 25.6656ZM38.6813 23.0555C37.7562 21.9926 37.1137 20.881 36.7332 19.7204L34.8328 20.3436C35.3056 21.7857 36.0924 23.1274 37.1727 24.3685L38.6813 23.0555ZM36.7378 19.7346C36.3625 18.5297 36.175 17.2967 36.175 16.032H34.175C34.175 17.498 34.3929 18.9316 34.8282 20.3294L36.7378 19.7346ZM36.175 16.032C36.175 14.7728 36.3714 13.5446 36.7652 12.3436L34.8648 11.7204C34.4052 13.122 34.175 14.5605 34.175 16.032H36.175ZM36.7683 12.3339C37.1439 11.1479 37.6876 10.0299 38.4022 8.97788L36.7478 7.85412C35.9264 9.06342 35.2968 10.3561 34.8617 11.7301L36.7683 12.3339ZM38.395 8.98842C39.1318 7.93293 39.9973 6.99784 40.9931 6.18127L39.7249 4.63473C38.5874 5.56749 37.5969 6.63773 36.755 7.84357L38.395 8.98842ZM40.9931 6.18127C41.9584 5.38967 43.0862 4.77437 44.3872 4.34068L43.7548 2.44332C42.2398 2.94829 40.8929 3.67699 39.7249 4.63473L40.9931 6.18127ZM44.3872 4.34068C45.6745 3.9116 47.0356 3.72388 48.4779 3.78316L48.5601 1.78484C46.8877 1.71612 45.2835 1.93373 43.7548 2.44331L44.3872 4.34068ZM48.4725 3.78292C50.2135 3.8639 51.4973 4.20531 52.396 4.73393L53.41 3.01007C52.1327 2.25869 50.4938 1.87477 48.5655 1.78508L48.4725 3.78292ZM52.3991 4.73578C52.611 4.85934 52.8763 5.038 53.199 5.28L54.399 3.68C54.039 3.41 53.707 3.18332 53.4069 3.00822L52.3991 4.73578ZM53.1882 5.27178L54.3082 6.13578L55.5298 4.55222L54.4098 3.68822L53.1882 5.27178ZM54.2843 6.11673L55.1803 6.85273L56.4497 5.30727L55.5537 4.57127L54.2843 6.11673ZM55.2198 6.88355C55.5778 7.14874 55.7624 7.46832 55.8143 7.89633L57.7997 7.65567C57.6809 6.67568 57.2042 5.86459 56.4102 5.27644L55.2198 6.88355ZM55.8183 7.9258C55.8848 8.36474 55.7929 8.73698 55.5234 9.10077L57.1306 10.2912C57.7144 9.50302 57.9425 8.59526 57.7957 7.62619L55.8183 7.9258ZM55.5344 9.08629C55.2681 9.43245 54.935 9.63052 54.4812 9.69928L54.7808 11.6767C55.735 11.5321 56.5326 11.0689 57.1196 10.3057L55.5344 9.08629ZM54.5107 9.69527C54.0629 9.74954 53.6966 9.64787 53.3527 9.38338L52.1333 10.9686C52.8988 11.5575 53.7911 11.7971 54.7513 11.6807L54.5107 9.69527ZM64.4915 5.76L63.4919 5.72971L63.4917 5.73803L64.4915 5.76ZM64.4915 11.936L65.4913 11.9164L64.4915 11.936ZM64.7155 19.232L63.7163 19.2717L63.7163 19.2723L64.7155 19.232ZM64.9395 25.408L63.9399 25.437L63.94 25.4383L64.9395 25.408ZM62.4435 28.032L62.4132 27.0325L62.4435 28.032ZM60.6195 27.328L61.3114 26.606L61.3114 26.606L60.6195 27.328ZM59.8195 25.536L60.819 25.5057L60.819 25.5057L59.8195 25.536ZM59.5955 19.296L60.5947 19.2573L60.5947 19.2573L59.5955 19.296ZM59.3715 11.872L58.3717 11.8914L59.3715 11.872ZM59.3715 5.632L58.3719 5.60171L58.3717 5.61026L59.3715 5.632ZM61.9955 3.136L61.9652 4.13554L61.9652 4.13554L61.9955 3.136ZM63.4917 5.73803C63.4487 7.69475 63.4488 9.76737 63.4917 11.9556L65.4913 11.9164C65.4489 9.75263 65.4489 7.70791 65.4913 5.78197L63.4917 5.73803ZM63.4917 11.9556C63.5345 14.1396 63.6094 16.5785 63.7163 19.2717L65.7147 19.1923C65.6083 16.5095 65.5338 14.0844 65.4913 11.9164L63.4917 11.9556ZM63.7163 19.2723C63.8229 21.9163 63.8974 23.9706 63.9399 25.437L65.9391 25.379C65.8963 23.9014 65.8214 21.8384 65.7147 19.1917L63.7163 19.2723ZM63.94 25.4383C63.9531 25.872 63.8199 26.2203 63.5135 26.5401L64.9575 27.9239C65.6324 27.2197 65.9686 26.352 65.939 25.3777L63.94 25.4383ZM63.5135 26.5401C63.2028 26.8643 62.8532 27.0191 62.4132 27.0325L62.4738 29.0315C63.4418 29.0022 64.2869 28.6237 64.9575 27.9239L63.5135 26.5401ZM62.4132 27.0325C61.9795 27.0456 61.6312 26.9124 61.3114 26.606L59.9276 28.05C60.6318 28.7249 61.4995 29.0611 62.4738 29.0315L62.4132 27.0325ZM61.3114 26.606C60.9872 26.2953 60.8324 25.9457 60.819 25.5057L58.82 25.5663C58.8493 26.5343 59.2278 27.3794 59.9276 28.05L61.3114 26.606ZM60.819 25.5057C60.7762 24.0934 60.7014 22.01 60.5947 19.2573L58.5963 19.3347C58.7029 22.086 58.7774 24.1626 58.82 25.5663L60.819 25.5057ZM60.5947 19.2573C60.4883 16.5102 60.4138 14.0421 60.3713 11.8526L58.3717 11.8914C58.4145 14.0966 58.4894 16.5778 58.5963 19.3347L60.5947 19.2573ZM60.3713 11.8526C60.3289 9.66738 60.3289 7.60118 60.3713 5.65373L58.3717 5.61026C58.3287 7.58815 58.3288 9.68196 58.3717 11.8914L60.3713 11.8526ZM60.371 5.66229C60.3844 5.22227 60.5392 4.87271 60.8634 4.56199L59.4796 3.11801C58.7798 3.78862 58.4013 4.63373 58.372 5.60171L60.371 5.66229ZM60.8634 4.56199C61.1832 4.25555 61.5315 4.1224 61.9652 4.13554L62.0258 2.13646C61.0515 2.10693 60.1838 2.44311 59.4796 3.11801L60.8634 4.56199ZM61.9652 4.13554C62.4052 4.14887 62.7548 4.30368 63.0655 4.6279L64.5095 3.24409C63.8389 2.54432 62.9938 2.16579 62.0258 2.13646L61.9652 4.13554ZM63.0655 4.6279C63.3719 4.94766 63.5051 5.296 63.492 5.72971L65.491 5.79029C65.5206 4.816 65.1844 3.94834 64.5095 3.24409L63.0655 4.6279ZM83.618 14.976L82.6185 15.0082L82.6188 15.0167L82.6192 15.0251L83.618 14.976ZM83.714 18.048H82.714V18.0561L82.7141 18.0641L83.714 18.048ZM83.618 21.376L82.6225 21.2812L82.6225 21.2812L83.618 21.376ZM82.786 24.512L81.9178 24.0159L81.9112 24.0273L81.905 24.0389L82.786 24.512ZM80.258 27.488L79.643 26.6995L79.643 26.6995L80.258 27.488ZM76.77 29.248L77.0016 30.2208L77.0167 30.2172L77.0317 30.2131L76.77 29.248ZM74.082 29.536L74.1058 28.5363L74.0939 28.536H74.082V29.536ZM71.394 28.96L70.9898 29.8747L70.9988 29.8787L71.0079 29.8824L71.394 28.96ZM68.93 27.2L69.657 26.5134L69.6541 26.5103L68.93 27.2ZM67.266 23.136L68.2562 22.9962L68.2559 22.9946L67.266 23.136ZM67.106 18.816L66.1067 18.7776L66.1067 18.7781L67.106 18.816ZM67.682 12L66.6838 11.9395L66.682 11.9697V12H67.682ZM68.514 10.24L67.8534 9.48929L67.8458 9.49599L67.8383 9.50284L68.514 10.24ZM70.37 9.6L70.3095 10.5982L70.3113 10.5983L70.37 9.6ZM72.162 10.464L71.4113 11.1246L71.418 11.1322L71.4248 11.1397L72.162 10.464ZM72.802 12.32L73.7979 12.4105L73.7993 12.3946L73.8003 12.3787L72.802 12.32ZM72.514 15.232L71.519 15.1325L71.5188 15.1339L72.514 15.232ZM72.226 19.008L71.2268 18.9655L71.2265 18.9777L72.226 19.008ZM72.322 22.432L71.3294 22.5531L71.3352 22.6014L71.3458 22.6489L72.322 22.432ZM72.418 22.976L71.4257 23.1L71.4332 23.16L71.4479 23.2185L72.418 22.976ZM72.514 23.36L71.5439 23.6025L71.5532 23.6398L71.5653 23.6762L72.514 23.36ZM72.61 23.584L73.5587 23.2678L73.5362 23.2004L73.5044 23.1368L72.61 23.584ZM72.642 23.68L71.6933 23.9962L71.7655 24.2127L71.9244 24.3765L72.642 23.68ZM75.394 24.32L75.6494 25.2869L75.6599 25.284L75.394 24.32ZM77.09 23.456L76.4849 22.6598L76.477 22.6658L76.4693 22.672L77.09 23.456ZM78.306 22.08L77.4378 21.5839L77.4321 21.5937L77.4267 21.6037L78.306 22.08ZM78.53 20.864L79.5254 20.9603L79.5259 20.9545L78.53 20.864ZM78.626 18.112H79.626V18.0981L79.6256 18.0842L78.626 18.112ZM78.498 14.976L77.4985 15.0082L77.4988 15.0163L77.4992 15.0243L78.498 14.976ZM79.17 10.592L79.8771 11.2991L79.17 10.592ZM82.786 10.592L82.064 11.2839L82.0787 11.2993L82.0941 11.314L82.786 10.592ZM82.554 12.384C82.554 12.8085 82.576 13.6893 82.6185 15.0082L84.6175 14.9438C84.5747 13.6174 84.554 12.7702 84.554 12.384H82.554ZM82.6192 15.0251C82.6829 16.3202 82.714 17.3254 82.714 18.048H84.714C84.714 17.2773 84.6811 16.2345 84.6168 14.9269L82.6192 15.0251ZM82.7141 18.0641C82.7351 19.3652 82.7031 20.4348 82.6225 21.2812L84.6135 21.4708C84.7036 20.5252 84.7356 19.3761 84.7139 18.0319L82.7141 18.0641ZM82.6225 21.2812C82.5011 22.5558 82.2453 23.4427 81.9178 24.0159L83.6542 25.0081C84.18 24.088 84.4789 22.8842 84.6135 21.4708L82.6225 21.2812ZM81.905 24.0389C81.3544 25.0641 80.6039 25.95 79.643 26.6995L80.873 28.2765C82.0454 27.362 82.9803 26.2639 83.667 24.9851L81.905 24.0389ZM79.643 26.6995C78.6772 27.4528 77.6338 27.9776 76.5083 28.2829L77.0317 30.2131C78.4235 29.8357 79.7055 29.1872 80.873 28.2765L79.643 26.6995ZM76.5384 28.2752C75.7237 28.4692 74.9135 28.5555 74.1058 28.5363L74.0582 30.5357C75.0425 30.5592 76.0243 30.4535 77.0016 30.2208L76.5384 28.2752ZM74.082 28.536C73.3569 28.536 72.5918 28.3773 71.7801 28.0376L71.0079 29.8824C72.0308 30.3107 73.0578 30.536 74.082 30.536V28.536ZM71.7982 28.0453C71.009 27.6966 70.2959 27.1899 69.657 26.5134L68.203 27.8866C69.0147 28.7461 69.9444 29.4127 70.9898 29.8747L71.7982 28.0453ZM69.6541 26.5103C68.9987 25.8222 68.4963 24.6972 68.2562 22.9962L66.2758 23.2758C66.5477 25.2015 67.1546 26.7858 68.2059 27.8897L69.6541 26.5103ZM68.2559 22.9946C68.0964 21.8775 68.0427 20.501 68.1053 18.8539L66.1067 18.7781C66.0413 20.5017 66.0943 22.0052 66.2761 23.2774L68.2559 22.9946ZM68.1053 18.8544C68.1468 17.7748 68.2512 16.4332 68.4205 14.8247L66.4315 14.6153C66.2595 16.2495 66.1505 17.6385 66.1067 18.7776L68.1053 18.8544ZM68.4205 14.8247C68.5868 13.2452 68.682 12.2604 68.682 12H66.682C66.682 11.9946 66.682 12.0067 66.6797 12.048C66.6775 12.0854 66.674 12.1357 66.669 12.2006C66.6589 12.3301 66.6435 12.5061 66.6224 12.7303C66.5802 13.1782 66.5167 13.8059 66.4315 14.6153L68.4205 14.8247ZM68.6802 12.0605C68.7074 11.6109 68.8721 11.2683 69.1897 10.9772L67.8383 9.50284C67.1319 10.1504 66.7419 10.9811 66.6838 11.9395L68.6802 12.0605ZM69.1746 10.9907C69.5113 10.6944 69.8713 10.5716 70.3095 10.5982L70.4305 8.60183C69.4607 8.54306 68.5833 8.84691 67.8534 9.48929L69.1746 10.9907ZM70.3113 10.5983C70.7769 10.6257 71.1228 10.7967 71.4113 11.1246L72.9127 9.80337C72.2626 9.06458 71.4137 8.65967 70.4287 8.60172L70.3113 10.5983ZM71.4248 11.1397C71.7022 11.4422 71.8313 11.7921 71.8037 12.2613L73.8003 12.3787C73.858 11.3973 73.5605 10.5098 72.8992 9.78827L71.4248 11.1397ZM71.8061 12.2295C71.7853 12.4583 71.69 13.4226 71.519 15.1325L73.509 15.3315C73.6794 13.6281 73.776 12.651 73.7979 12.4105L71.8061 12.2295ZM71.5188 15.1339C71.3685 16.6587 71.2707 17.9374 71.2269 18.9655L73.2251 19.0505C73.2667 18.0733 73.3608 16.8347 73.5092 15.3301L71.5188 15.1339ZM71.2265 18.9777C71.1831 20.4102 71.2141 21.6076 71.3294 22.5531L73.3146 22.3109C73.2166 21.507 73.1836 20.4218 73.2255 19.0383L71.2265 18.9777ZM71.3458 22.6489C71.3826 22.8145 71.4088 22.9646 71.4257 23.1L73.4103 22.852C73.3845 22.6461 73.3467 22.4335 73.2982 22.2151L71.3458 22.6489ZM71.4479 23.2185C71.4905 23.3892 71.5225 23.5172 71.5439 23.6025L73.4841 23.1175C73.4628 23.0321 73.4308 22.9041 73.3881 22.7335L71.4479 23.2185ZM71.5653 23.6762C71.6063 23.7993 71.6597 23.9194 71.7156 24.0312L73.5044 23.1368C73.475 23.078 73.4643 23.0487 73.4627 23.0438L71.5653 23.6762ZM71.6613 23.9002L71.6933 23.9962L73.5907 23.3638L73.5587 23.2678L71.6613 23.9002ZM71.9244 24.3765C72.9242 25.4065 74.2352 25.6604 75.6494 25.2868L75.1386 23.3532C74.2915 23.5769 73.7678 23.4041 73.3596 22.9835L71.9244 24.3765ZM75.6599 25.284C76.41 25.0771 77.0956 24.727 77.7107 24.24L76.4693 22.672C76.0604 22.9956 75.6153 23.2216 75.1281 23.356L75.6599 25.284ZM77.6951 24.2522C78.3246 23.7738 78.8309 23.2106 79.1853 22.5563L77.4267 21.6037C77.2265 21.9734 76.9221 22.3276 76.4849 22.6598L77.6951 24.2522ZM79.1742 22.5761C79.31 22.3386 79.3723 22.0467 79.4095 21.8452C79.4541 21.6028 79.492 21.3045 79.5254 20.9603L77.5347 20.7677C77.504 21.0848 77.4726 21.3199 77.4425 21.4828C77.4276 21.5642 77.4151 21.6153 77.4072 21.6428C77.3965 21.6798 77.402 21.6464 77.4378 21.5839L79.1742 22.5761ZM79.5259 20.9545C79.5937 20.2081 79.626 19.2573 79.626 18.112H77.626C77.626 19.228 77.5943 20.1119 77.5341 20.7735L79.5259 20.9545ZM79.6256 18.0842C79.604 17.3062 79.561 16.2531 79.4968 14.9277L77.4992 15.0243C77.563 16.3443 77.6053 17.3818 77.6264 18.1398L79.6256 18.0842ZM79.4975 14.9438C79.4547 13.6174 79.434 12.7702 79.434 12.384H77.434C77.434 12.8085 77.456 13.6893 77.4985 15.0082L79.4975 14.9438ZM79.434 12.384C79.434 11.9409 79.577 11.5992 79.8771 11.2991L78.4629 9.88489C77.7817 10.5661 77.434 11.4191 77.434 12.384H79.434ZM79.8771 11.2991C80.2076 10.9687 80.5636 10.824 80.994 10.824V8.824C80.0164 8.824 79.1564 9.19134 78.4629 9.88489L79.8771 11.2991ZM80.994 10.824C81.4232 10.824 81.7604 10.9671 82.064 11.2839L83.508 9.90009C82.8303 9.19291 81.9728 8.824 80.994 8.824V10.824ZM82.0941 11.314C82.4109 11.6176 82.554 11.9548 82.554 12.384H84.554C84.554 11.4052 84.1851 10.5477 83.4779 9.87001L82.0941 11.314ZM90.3993 16.512L89.7746 15.7311L89.384 16.0436L89.3997 16.5435L90.3993 16.512ZM90.5593 22.368L89.5594 22.3859L89.5769 23.368H90.5593V22.368ZM91.0393 22.4L91.2402 21.4204L91.2106 21.4143L91.1807 21.4101L91.0393 22.4ZM92.2873 22.656L92.0863 23.6356L92.0911 23.6366L92.2873 22.656ZM93.2793 22.848L93.1149 23.8344L93.1965 23.848H93.2793V22.848ZM93.9513 22.88L93.88 23.8775L93.8847 23.8778L93.9513 22.88ZM94.7513 22.848L94.9474 23.8286L94.9811 23.8218L95.0144 23.8128L94.7513 22.848ZM95.6153 22.592L95.3331 21.6326L95.325 21.635L95.317 21.6375L95.6153 22.592ZM98.3353 20.544L99.2681 20.9044L99.2716 20.8951L98.3353 20.544ZM98.0793 17.696L98.9845 17.2711L98.9803 17.2622L98.0793 17.696ZM95.5193 15.2L95.1131 16.1138L95.1131 16.1138L95.5193 15.2ZM91.8073 15.232L91.4333 14.3046L91.396 14.3196L91.36 14.3376L91.8073 15.232ZM91.4873 15.52L92.1696 16.2511L92.1822 16.2393L92.1944 16.2271L91.4873 15.52ZM91.0073 15.968L90.3249 15.2369L90.3123 15.2487L90.3001 15.2609L91.0073 15.968ZM90.2073 27.456L90.4242 26.4798L89.7646 26.3332L89.3825 26.8905L90.2073 27.456ZM88.0953 28.608V29.608H88.1072L88.1191 29.6077L88.0953 28.608ZM86.2713 27.872L85.5793 28.594L85.5793 28.594L86.2713 27.872ZM85.5033 26.08L86.5033 26.08L86.5032 26.0688L85.5033 26.08ZM85.2473 16.064L84.2476 16.0908L84.2477 16.0952L85.2473 16.064ZM85.7913 3.2L85.0841 2.49289L85.0841 2.49289L85.7913 3.2ZM89.4073 3.2L88.6853 3.8919L88.7 3.90727L88.7153 3.92199L89.4073 3.2ZM90.2393 10.368L89.2395 10.3897L89.2701 11.7994L90.5904 11.3043L90.2393 10.368ZM95.5193 9.888L95.2916 10.8617L95.2989 10.8635L95.3063 10.8651L95.5193 9.888ZM99.8393 11.936L99.203 12.7076L99.2112 12.7142L99.8393 11.936ZM102.687 15.488L103.586 15.0505L103.584 15.0463L102.687 15.488ZM103.103 22.4L102.172 22.0363L102.17 22.0399L103.103 22.4ZM100.863 25.536L101.513 26.2964L101.513 26.2964L100.863 25.536ZM97.0873 27.52L97.3673 28.48L97.3746 28.4778L97.0873 27.52ZM95.5833 27.872L95.7184 28.8628L95.7365 28.8604L95.7546 28.8572L95.5833 27.872ZM94.3673 28L94.3049 27.0019L94.3007 27.0022L94.3673 28ZM93.2153 27.968L93.1157 28.963L93.1204 28.9635L93.2153 27.968ZM92.2233 27.872L92.0271 28.8526L92.0795 28.8631L92.1327 28.8679L92.2233 27.872ZM91.1993 27.68L90.9776 28.6551L90.9989 28.66L91.0204 28.6639L91.1993 27.68ZM89.3997 16.5435C89.4851 19.2525 89.5382 21.1986 89.5594 22.3859L91.5591 22.3501C91.5376 21.1481 91.4841 19.1902 91.3988 16.4805L89.3997 16.5435ZM90.5593 23.368C90.6886 23.368 90.801 23.3761 90.8978 23.3899L91.1807 21.4101C90.9789 21.3812 90.7712 21.368 90.5593 21.368V23.368ZM90.8383 23.3796L92.0863 23.6356L92.4882 21.6764L91.2402 21.4204L90.8383 23.3796ZM92.0911 23.6366C92.6181 23.742 92.9672 23.8098 93.1149 23.8344L93.4436 21.8616C93.3353 21.8435 93.0231 21.7834 92.4834 21.6754L92.0911 23.6366ZM93.2793 23.848C93.3916 23.848 93.5865 23.8565 93.88 23.8775L94.0225 21.8825C93.7186 21.8608 93.4656 21.848 93.2793 21.848V23.848ZM93.8847 23.8778C94.2553 23.9025 94.6173 23.8946 94.9474 23.8286L94.5551 21.8674C94.4585 21.8867 94.2873 21.9002 94.0178 21.8822L93.8847 23.8778ZM95.0144 23.8128C95.2649 23.7444 95.5654 23.6553 95.9135 23.5465L95.317 21.6375C94.9824 21.7421 94.707 21.8236 94.4881 21.8832L95.0144 23.8128ZM95.8974 23.5514C97.4917 23.0825 98.7459 22.2559 99.268 20.9044L97.4025 20.1836C97.1993 20.7094 96.6402 21.2482 95.3331 21.6326L95.8974 23.5514ZM99.2716 20.8951C99.7099 19.7263 99.5574 18.4916 98.9845 17.2711L97.174 18.1209C97.5825 18.9911 97.6006 19.6551 97.3989 20.1929L99.2716 20.8951ZM98.9803 17.2622C98.3243 15.8999 97.2974 14.896 95.9254 14.2862L95.1131 16.1138C96.0451 16.528 96.7248 17.1881 97.1782 18.1298L98.9803 17.2622ZM95.9254 14.2862C94.4925 13.6493 92.971 13.6845 91.4333 14.3046L92.1812 16.1594C93.2888 15.7128 94.242 15.7267 95.1131 16.1138L95.9254 14.2862ZM91.36 14.3376C91.1973 14.419 91.0618 14.5448 91.0263 14.5767C90.9541 14.6416 90.8708 14.7223 90.7801 14.8129L92.1944 16.2271C92.2744 16.1471 92.3297 16.0944 92.3642 16.0633C92.3818 16.0475 92.3863 16.0442 92.3811 16.0483C92.3782 16.0506 92.3678 16.0586 92.3516 16.0697C92.3432 16.0755 92.3312 16.0833 92.3163 16.0924C92.3017 16.1012 92.2807 16.1133 92.2545 16.1264L91.36 14.3376ZM90.8049 14.7889L90.3249 15.2369L91.6896 16.6991L92.1696 16.2511L90.8049 14.7889ZM90.3001 15.2609C90.1344 15.4266 89.9593 15.5834 89.7746 15.7311L91.0239 17.2929C91.2659 17.0993 91.4961 16.8934 91.7144 16.6751L90.3001 15.2609ZM89.3825 26.8905C89.05 27.3753 88.6424 27.5947 88.0714 27.6083L88.1191 29.6077C89.3401 29.5786 90.3405 29.03 91.032 28.0215L89.3825 26.8905ZM88.0953 27.608C87.6512 27.608 87.2905 27.4637 86.9632 27.15L85.5793 28.594C86.276 29.2616 87.1313 29.608 88.0953 29.608V27.608ZM86.9632 27.15C86.6463 26.8464 86.5033 26.5092 86.5033 26.08H84.5033C84.5033 27.0588 84.8722 27.9163 85.5793 28.594L86.9632 27.15ZM86.5032 26.0688C86.4817 24.1589 86.3961 20.8111 86.2468 16.0328L84.2477 16.0952C84.3971 20.8742 84.4821 24.2037 84.5033 26.0912L86.5032 26.0688ZM86.2469 16.0372C86.119 11.2614 86.0553 7.58125 86.0553 4.992H84.0553C84.0553 7.60808 84.1195 11.3092 84.2476 16.0908L86.2469 16.0372ZM86.0553 4.992C86.0553 4.54888 86.1983 4.2072 86.4984 3.90711L85.0841 2.49289C84.4029 3.17414 84.0553 4.02711 84.0553 4.992H86.0553ZM86.4984 3.90711C86.8288 3.57666 87.1848 3.432 87.6153 3.432V1.432C86.6377 1.432 85.7777 1.79934 85.0841 2.49289L86.4984 3.90711ZM87.6153 3.432C88.0444 3.432 88.3816 3.57508 88.6853 3.8919L90.1292 2.50809C89.4515 1.80091 88.5941 1.432 87.6153 1.432V3.432ZM88.7153 3.92199C89.0322 4.22561 89.1753 4.56285 89.1753 4.992H91.1753C91.1753 4.01315 90.8063 3.15572 90.0992 2.47801L88.7153 3.92199ZM89.1753 4.992C89.1753 6.62189 89.1967 8.42127 89.2395 10.3897L91.239 10.3463C91.1965 8.3894 91.1753 6.60477 91.1753 4.992H89.1753ZM90.5904 11.3043C92.3182 10.6564 93.8752 10.5306 95.2916 10.8617L95.7469 8.91425C93.878 8.47736 91.9149 8.67161 89.8881 9.43167L90.5904 11.3043ZM95.3063 10.8651C96.8277 11.1966 98.1195 11.8141 99.2031 12.7075L100.475 11.1645C99.127 10.0526 97.5388 9.30468 95.7322 8.91094L95.3063 10.8651ZM99.2112 12.7142C100.315 13.6053 101.172 14.6749 101.79 15.9297L103.584 15.0463C102.837 13.5278 101.795 12.2294 100.467 11.1578L99.2112 12.7142ZM101.788 15.9255C102.831 18.0692 102.935 20.0825 102.172 22.0363L104.035 22.7637C105.021 20.2375 104.848 17.6428 103.586 15.0505L101.788 15.9255ZM102.17 22.0399C101.763 23.0958 101.116 24.0051 100.214 24.7756L101.513 26.2964C102.659 25.3176 103.505 24.1362 104.036 22.7601L102.17 22.0399ZM100.214 24.7756C99.3108 25.5469 98.181 26.1479 96.7999 26.5622L97.3746 28.4778C98.9802 27.9961 100.368 27.2744 101.513 26.2964L100.214 24.7756ZM96.8073 26.56C96.3285 26.6996 95.8634 26.8083 95.4119 26.8868L95.7546 28.8572C96.2844 28.7651 96.822 28.639 97.3673 28.48L96.8073 26.56ZM95.4481 26.8812C94.9945 26.943 94.6147 26.9826 94.3049 27.0019L94.4296 28.9981C94.8025 28.9747 95.2333 28.929 95.7184 28.8628L95.4481 26.8812ZM94.3007 27.0022C94.0511 27.0189 93.724 27.0119 93.3101 26.9725L93.1204 28.9635C93.6025 29.0094 94.0434 29.0238 94.4338 28.9978L94.3007 27.0022ZM93.3148 26.973C92.8871 26.9302 92.5529 26.8978 92.3138 26.8761L92.1327 28.8679C92.3629 28.8888 92.6901 28.9205 93.1157 28.963L93.3148 26.973ZM92.4194 26.8914C92.1968 26.8469 91.8481 26.7816 91.3781 26.6961L91.0204 28.6639C91.489 28.7491 91.823 28.8118 92.0271 28.8526L92.4194 26.8914ZM91.4209 26.7049C90.9516 26.5982 90.6188 26.5231 90.4242 26.4798L89.9903 28.4322C90.1797 28.4743 90.5083 28.5485 90.9776 28.6551L91.4209 26.7049ZM110.306 16.512L109.681 15.7311L109.29 16.0436L109.306 16.5435L110.306 16.512ZM110.466 22.368L109.466 22.3859L109.483 23.368H110.466V22.368ZM110.946 22.4L111.146 21.4204L111.117 21.4143L111.087 21.4101L110.946 22.4ZM112.194 22.656L111.993 23.6356L111.997 23.6366L112.194 22.656ZM113.186 22.848L113.021 23.8344L113.103 23.848H113.186V22.848ZM113.858 22.88L113.786 23.8775L113.791 23.8778L113.858 22.88ZM114.658 22.848L114.854 23.8286L114.887 23.8218L114.921 23.8128L114.658 22.848ZM115.522 22.592L115.239 21.6326L115.231 21.635L115.223 21.6375L115.522 22.592ZM118.242 20.544L119.174 20.9044L119.178 20.8951L118.242 20.544ZM117.986 17.696L118.891 17.2711L118.887 17.2622L117.986 17.696ZM115.426 15.2L115.019 16.1138L115.019 16.1138L115.426 15.2ZM111.714 15.232L111.34 14.3046L111.302 14.3196L111.266 14.3376L111.714 15.232ZM111.394 15.52L112.076 16.2511L112.088 16.2393L112.101 16.2271L111.394 15.52ZM110.914 15.968L110.231 15.2369L110.219 15.2487L110.206 15.2609L110.914 15.968ZM110.114 27.456L110.33 26.4798L109.671 26.3332L109.289 26.8905L110.114 27.456ZM108.002 28.608V29.608H108.013L108.025 29.6077L108.002 28.608ZM106.178 27.872L105.486 28.594L105.486 28.594L106.178 27.872ZM105.41 26.08L106.41 26.08L106.409 26.0688L105.41 26.08ZM105.154 16.064L104.154 16.0908L104.154 16.0952L105.154 16.064ZM105.698 3.2L104.99 2.49289L104.99 2.49289L105.698 3.2ZM109.314 3.2L108.592 3.8919L108.606 3.90727L108.622 3.92199L109.314 3.2ZM110.146 10.368L109.146 10.3897L109.176 11.7994L110.497 11.3043L110.146 10.368ZM115.426 9.888L115.198 10.8617L115.205 10.8635L115.213 10.8651L115.426 9.888ZM119.746 11.936L119.109 12.7076L119.117 12.7142L119.746 11.936ZM122.594 15.488L123.493 15.0505L123.491 15.0463L122.594 15.488ZM123.01 22.4L122.078 22.0363L122.077 22.0399L123.01 22.4ZM120.77 25.536L121.419 26.2964L121.419 26.2964L120.77 25.536ZM116.994 27.52L117.274 28.48L117.281 28.4778L116.994 27.52ZM115.49 27.872L115.625 28.8628L115.643 28.8604L115.661 28.8572L115.49 27.872ZM114.274 28L114.211 27.0019L114.207 27.0022L114.274 28ZM113.122 27.968L113.022 28.963L113.027 28.9635L113.122 27.968ZM112.13 27.872L111.933 28.8526L111.986 28.8631L112.039 28.8679L112.13 27.872ZM111.106 27.68L110.884 28.6551L110.905 28.66L110.927 28.6639L111.106 27.68ZM109.306 16.5435C109.391 19.2525 109.444 21.1986 109.466 22.3859L111.465 22.3501C111.444 21.1481 111.39 19.1902 111.305 16.4805L109.306 16.5435ZM110.466 23.368C110.595 23.368 110.707 23.3761 110.804 23.3899L111.087 21.4101C110.885 21.3812 110.677 21.368 110.466 21.368V23.368ZM110.745 23.3796L111.993 23.6356L112.394 21.6764L111.146 21.4204L110.745 23.3796ZM111.997 23.6366C112.524 23.742 112.873 23.8098 113.021 23.8344L113.35 21.8616C113.242 21.8435 112.929 21.7834 112.39 21.6754L111.997 23.6366ZM113.186 23.848C113.298 23.848 113.493 23.8565 113.786 23.8775L113.929 21.8825C113.625 21.8608 113.372 21.848 113.186 21.848V23.848ZM113.791 23.8778C114.162 23.9025 114.524 23.8946 114.854 23.8286L114.461 21.8674C114.365 21.8867 114.194 21.9002 113.924 21.8822L113.791 23.8778ZM114.921 23.8128C115.171 23.7444 115.472 23.6553 115.82 23.5465L115.223 21.6375C114.889 21.7421 114.613 21.8236 114.394 21.8832L114.921 23.8128ZM115.804 23.5514C117.398 23.0825 118.652 22.2559 119.174 20.9044L117.309 20.1836C117.106 20.7094 116.546 21.2482 115.239 21.6326L115.804 23.5514ZM119.178 20.8951C119.616 19.7263 119.464 18.4916 118.891 17.2711L117.08 18.1209C117.489 18.9911 117.507 19.6551 117.305 20.1929L119.178 20.8951ZM118.887 17.2622C118.231 15.8999 117.204 14.896 115.832 14.2862L115.019 16.1138C115.951 16.528 116.631 17.1881 117.084 18.1298L118.887 17.2622ZM115.832 14.2862C114.399 13.6493 112.877 13.6845 111.34 14.3046L112.087 16.1594C113.195 15.7128 114.148 15.7267 115.019 16.1138L115.832 14.2862ZM111.266 14.3376C111.104 14.419 110.968 14.5448 110.933 14.5767C110.86 14.6416 110.777 14.7223 110.686 14.8129L112.101 16.2271C112.181 16.1471 112.236 16.0944 112.27 16.0633C112.288 16.0475 112.293 16.0442 112.287 16.0483C112.284 16.0506 112.274 16.0586 112.258 16.0697C112.249 16.0755 112.237 16.0833 112.223 16.0924C112.208 16.1012 112.187 16.1133 112.161 16.1264L111.266 14.3376ZM110.711 14.7889L110.231 15.2369L111.596 16.6991L112.076 16.2511L110.711 14.7889ZM110.206 15.2609C110.041 15.4266 109.866 15.5834 109.681 15.7311L110.93 17.2929C111.172 17.0993 111.402 16.8934 111.621 16.6751L110.206 15.2609ZM109.289 26.8905C108.956 27.3753 108.549 27.5947 107.978 27.6083L108.025 29.6077C109.246 29.5786 110.247 29.03 110.938 28.0215L109.289 26.8905ZM108.002 27.608C107.557 27.608 107.197 27.4637 106.869 27.15L105.486 28.594C106.182 29.2616 107.038 29.608 108.002 29.608V27.608ZM106.869 27.15C106.553 26.8464 106.41 26.5092 106.41 26.08H104.41C104.41 27.0588 104.778 27.9163 105.486 28.594L106.869 27.15ZM106.409 26.0688C106.388 24.1589 106.302 20.8111 106.153 16.0328L104.154 16.0952C104.303 20.8742 104.388 24.2037 104.41 26.0912L106.409 26.0688ZM106.153 16.0372C106.025 11.2614 105.962 7.58125 105.962 4.992H103.962C103.962 7.60808 104.026 11.3092 104.154 16.0908L106.153 16.0372ZM105.962 4.992C105.962 4.54888 106.105 4.2072 106.405 3.90711L104.99 2.49289C104.309 3.17414 103.962 4.02711 103.962 4.992H105.962ZM106.405 3.90711C106.735 3.57666 107.091 3.432 107.522 3.432V1.432C106.544 1.432 105.684 1.79934 104.99 2.49289L106.405 3.90711ZM107.522 3.432C107.951 3.432 108.288 3.57508 108.592 3.8919L110.035 2.50809C109.358 1.80091 108.5 1.432 107.522 1.432V3.432ZM108.622 3.92199C108.938 4.22561 109.082 4.56285 109.082 4.992H111.082C111.082 4.01315 110.713 3.15572 110.005 2.47801L108.622 3.92199ZM109.082 4.992C109.082 6.62189 109.103 8.42127 109.146 10.3897L111.145 10.3463C111.103 8.3894 111.082 6.60477 111.082 4.992H109.082ZM110.497 11.3043C112.224 10.6564 113.781 10.5306 115.198 10.8617L115.653 8.91425C113.784 8.47736 111.821 8.67161 109.794 9.43167L110.497 11.3043ZM115.213 10.8651C116.734 11.1966 118.026 11.8141 119.109 12.7075L120.382 11.1645C119.033 10.0526 117.445 9.30468 115.638 8.91094L115.213 10.8651ZM119.117 12.7142C120.222 13.6053 121.079 14.6749 121.696 15.9297L123.491 15.0463C122.743 13.5278 121.701 12.2294 120.374 11.1578L119.117 12.7142ZM121.694 15.9255C122.737 18.0692 122.841 20.0825 122.078 22.0363L123.941 22.7637C124.927 20.2375 124.754 17.6428 123.493 15.0505L121.694 15.9255ZM122.077 22.0399C121.669 23.0958 121.022 24.0051 120.12 24.7756L121.419 26.2964C122.565 25.3176 123.411 24.1362 123.942 22.7601L122.077 22.0399ZM120.12 24.7756C119.217 25.5469 118.087 26.1479 116.706 26.5622L117.281 28.4778C118.886 27.9961 120.274 27.2744 121.419 26.2964L120.12 24.7756ZM116.714 26.56C116.235 26.6996 115.77 26.8083 115.318 26.8868L115.661 28.8572C116.191 28.7651 116.728 28.639 117.274 28.48L116.714 26.56ZM115.354 26.8812C114.901 26.943 114.521 26.9826 114.211 27.0019L114.336 28.9981C114.709 28.9747 115.14 28.929 115.625 28.8628L115.354 26.8812ZM114.207 27.0022C113.957 27.0189 113.63 27.0119 113.216 26.9725L113.027 28.9635C113.509 29.0094 113.95 29.0238 114.34 28.9978L114.207 27.0022ZM113.221 26.973C112.793 26.9302 112.459 26.8978 112.22 26.8761L112.039 28.8679C112.269 28.8888 112.596 28.9205 113.022 28.963L113.221 26.973ZM112.326 26.8914C112.103 26.8469 111.754 26.7816 111.284 26.6961L110.927 28.6639C111.395 28.7491 111.729 28.8118 111.933 28.8526L112.326 26.8914ZM111.327 26.7049C110.858 26.5982 110.525 26.5231 110.33 26.4798L109.897 28.4322C110.086 28.4743 110.415 28.5485 110.884 28.6551L111.327 26.7049ZM130.564 18.56L129.564 18.5903L129.564 18.5905L130.564 18.56ZM130.724 24.608H131.724V24.5994L131.724 24.5908L130.724 24.608ZM129.988 26.432L129.266 25.7401L129.266 25.7401L129.988 26.432ZM126.372 26.464L125.68 27.186L125.68 27.186L126.372 26.464ZM125.604 24.672H126.604V24.6634L126.604 24.6548L125.604 24.672ZM125.444 18.592L124.444 18.6223L124.444 18.6223L125.444 18.592ZM126.052 10.304L125.345 9.59689L125.345 9.59689L126.052 10.304ZM129.668 10.304L128.946 10.9959L128.96 11.0113L128.976 11.026L129.668 10.304ZM128.964 4.096L128.242 4.7879L128.256 4.80327L128.272 4.81799L128.964 4.096ZM128.964 7.712L129.671 8.41911L129.671 8.41911L128.964 7.712ZM125.348 7.712L124.626 8.4039L124.64 8.41927L124.656 8.43399L125.348 7.712ZM125.348 4.096L124.641 3.38889L124.641 3.38889L125.348 4.096ZM129.436 12.096C129.436 13.6047 129.479 15.7713 129.564 18.5903L131.563 18.5297C131.478 15.7167 131.436 13.574 131.436 12.096H129.436ZM129.564 18.5905C129.65 21.3848 129.703 23.3951 129.724 24.6252L131.724 24.5908C131.702 23.3462 131.649 21.3245 131.563 18.5295L129.564 18.5905ZM129.724 24.608C129.724 25.052 129.579 25.4127 129.266 25.7401L130.71 27.1239C131.377 26.4273 131.724 25.572 131.724 24.608H129.724ZM129.266 25.7401C128.962 26.0569 128.625 26.2 128.196 26.2V28.2C129.175 28.2 130.032 27.8311 130.71 27.1239L129.266 25.7401ZM128.196 26.2C127.752 26.2 127.391 26.0557 127.064 25.742L125.68 27.186C126.376 27.8536 127.232 28.2 128.196 28.2V26.2ZM127.064 25.742C126.747 25.4384 126.604 25.1012 126.604 24.672H124.604C124.604 25.6508 124.973 26.5083 125.68 27.186L127.064 25.742ZM126.604 24.6548C126.582 23.4103 126.529 21.378 126.443 18.5617L124.444 18.6223C124.53 21.438 124.583 23.459 124.604 24.6892L126.604 24.6548ZM126.443 18.5617C126.358 15.7488 126.316 13.5954 126.316 12.096H124.316C124.316 13.6259 124.359 15.8032 124.444 18.6223L126.443 18.5617ZM126.316 12.096C126.316 11.6529 126.459 11.3112 126.759 11.0111L125.345 9.59689C124.663 10.2781 124.316 11.1311 124.316 12.096H126.316ZM126.759 11.0111C127.089 10.6807 127.445 10.536 127.876 10.536V8.536C126.898 8.536 126.038 8.90334 125.345 9.59689L126.759 11.0111ZM127.876 10.536C128.305 10.536 128.642 10.6791 128.946 10.9959L130.39 9.61209C129.712 8.90491 128.855 8.536 127.876 8.536V10.536ZM128.976 11.026C129.293 11.3296 129.436 11.6668 129.436 12.096H131.436C131.436 11.1172 131.067 10.2597 130.36 9.58201L128.976 11.026ZM128.272 4.81799C128.589 5.12161 128.732 5.45885 128.732 5.888H130.732C130.732 4.90915 130.363 4.05172 129.656 3.37401L128.272 4.81799ZM128.732 5.888C128.732 6.31844 128.587 6.67444 128.257 7.00489L129.671 8.41911C130.364 7.72555 130.732 6.86556 130.732 5.888H128.732ZM128.257 7.00489C127.957 7.30498 127.615 7.448 127.172 7.448V9.448C128.137 9.448 128.99 9.10035 129.671 8.41911L128.257 7.00489ZM127.172 7.448C126.728 7.448 126.367 7.30373 126.04 6.99001L124.656 8.43399C125.352 9.1016 126.208 9.448 127.172 9.448V7.448ZM126.07 7.0201C125.756 6.69274 125.612 6.33204 125.612 5.888H123.612C123.612 6.85195 123.958 7.70726 124.626 8.4039L126.07 7.0201ZM125.612 5.888C125.612 5.44488 125.755 5.1032 126.055 4.80311L124.641 3.38889C123.959 4.07014 123.612 4.92311 123.612 5.888H125.612ZM126.055 4.80311C126.385 4.47266 126.741 4.328 127.172 4.328V2.328C126.194 2.328 125.334 2.69534 124.641 3.38889L126.055 4.80311ZM127.172 4.328C127.601 4.328 127.938 4.47108 128.242 4.7879L129.686 3.40409C129.008 2.69691 128.151 2.328 127.172 2.328V4.328Z" fill="black" mask="url(#path-1-outside-1_659_1856)">
</path>    
<animateTransform attributeName="transform" begin="0s" type="scale" dur="1s" from="0" to="0.75" repeatCount="1"/>
<animateTransform attributeName="transform" begin="1s" type="scale" dur="1s" from="0.75" to="0.5" repeatCount="1"/>
<animateTransform attributeName="transform" begin="2s" type="scale" dur="1s" from="0.5" to="1" repeatCount="1"/>
</g>
</svg>
